<?xml version="1.0" encoding="UTF-8" standalone="no"?><!DOCTYPE svg PUBLIC "-//W3C//DTD SVG 1.1//EN" "http://www.w3.org/Graphics/SVG/1.1/DTD/svg11.dtd"><svg width="100%" height="100%" viewBox="0 0 1311 323" version="1.1" xmlns="http://www.w3.org/2000/svg" xmlns:xlink="http://www.w3.org/1999/xlink" xml:space="preserve" xmlns:serif="http://www.serif.com/" style="fill-rule:evenodd;clip-rule:evenodd;stroke-linejoin:round;stroke-miterlimit:2;"><g><g><path d="M346.569,221.453l-12.088,-0.025l0.013,-6.478l12.088,0.025l0.042,-20.198l7.192,0.014l-0.042,20.199l12.038,0.025l-0.014,6.478l-12.037,-0.025l-0.085,41.468l-7.192,-0.015l0.085,-41.468Zm70.775,20.293c0.297,2.503 0.991,4.766 2.083,6.788c1.508,2.792 3.637,4.964 6.388,6.517c2.751,1.553 5.946,2.333 9.585,2.34c2.89,0.006 5.56,-0.515 8.011,-1.564c2.45,-1.049 4.528,-2.609 6.232,-4.68l4.632,4.702c-2.249,2.648 -5.034,4.691 -8.352,6.129c-3.318,1.439 -6.882,2.154 -10.69,2.146c-4.795,-0.01 -9.094,-1.107 -12.898,-3.291c-3.804,-2.184 -6.807,-5.174 -9.01,-8.97c-2.202,-3.796 -3.299,-8.075 -3.289,-12.835c0.01,-4.727 1.098,-8.967 3.265,-12.72c2.167,-3.753 5.123,-6.722 8.868,-8.907c3.745,-2.186 7.93,-3.274 12.555,-3.265c4.386,0.009 8.261,1.012 11.623,3.008c3.362,1.996 6,4.748 7.914,8.254c1.914,3.506 2.867,7.521 2.858,12.044c-0.002,0.544 -0.037,1.173 -0.106,1.887c-0.07,0.714 -0.191,1.546 -0.363,2.498l-39.306,-0.081Zm0.031,-6.069l32.762,0.067c-0.165,-2.589 -0.739,-4.886 -1.723,-6.889c-1.253,-2.553 -3.051,-4.538 -5.394,-5.954c-2.344,-1.416 -5.165,-2.127 -8.463,-2.134c-3.469,-0.007 -6.505,0.743 -9.109,2.251c-2.605,1.508 -4.632,3.603 -6.083,6.287c-1.021,1.887 -1.684,4.011 -1.99,6.372Zm110.077,28.637c-4.692,-0.01 -8.923,-1.124 -12.693,-3.342c-3.77,-2.218 -6.748,-5.233 -8.933,-9.046c-2.186,-3.813 -3.274,-8.066 -3.264,-12.759c0.01,-4.692 1.115,-8.915 3.316,-12.668c2.201,-3.753 5.191,-6.722 8.97,-8.908c3.779,-2.185 8.015,-3.273 12.707,-3.263c3.605,0.007 6.97,0.694 10.095,2.061c3.126,1.366 5.791,3.293 7.996,5.78l-4.753,4.785c-1.628,-1.84 -3.589,-3.255 -5.883,-4.246c-2.293,-0.991 -4.783,-1.489 -7.469,-1.495c-3.366,-0.007 -6.377,0.769 -9.033,2.328c-2.655,1.559 -4.743,3.68 -6.261,6.363c-1.519,2.683 -2.282,5.776 -2.289,9.279c-0.007,3.502 0.743,6.623 2.25,9.364c1.508,2.74 3.586,4.904 6.235,6.491c2.649,1.586 5.657,2.383 9.024,2.39c2.72,0.006 5.237,-0.482 7.552,-1.464c2.314,-0.981 4.306,-2.405 5.976,-4.272l4.734,4.804c-2.25,2.512 -4.957,4.445 -8.122,5.798c-3.165,1.354 -6.55,2.027 -10.155,2.02Zm73.153,-29.076l-0.058,28.206l-7.192,-0.015l0.148,-72.225l7.192,0.015l-0.064,31.313c1.602,-2.297 3.661,-4.153 6.178,-5.568c2.924,-1.643 6.232,-2.461 9.926,-2.453c3.693,0.008 6.957,0.847 9.793,2.52c2.836,1.672 5.05,3.98 6.642,6.925c1.592,2.944 2.384,6.338 2.376,10.18l-0.06,29.38l-7.192,-0.015l0.058,-28.155c0.009,-4.183 -1.234,-7.586 -3.728,-10.209c-2.494,-2.624 -5.777,-3.94 -9.849,-3.948c-2.771,-0.006 -5.219,0.593 -7.342,1.796c-2.124,1.202 -3.791,2.857 -5.003,4.962c-1.211,2.106 -1.82,4.536 -1.825,7.291Zm93.137,0.191l-0.058,28.207l-7.192,-0.015l0.099,-47.946l7.192,0.015l-0.014,7.034c1.601,-2.298 3.661,-4.154 6.177,-5.568c2.924,-1.643 6.233,-2.461 9.927,-2.453c3.693,0.007 6.957,0.907 9.792,2.698c2.836,1.791 5.05,4.176 6.642,7.154c1.592,2.979 2.384,6.237 2.377,9.773l-0.06,29.38l-7.192,-0.015l0.058,-28.156c0.008,-4.182 -1.234,-7.585 -3.728,-10.209c-2.494,-2.623 -5.777,-3.939 -9.849,-3.947c-2.771,-0.006 -5.219,0.592 -7.342,1.795c-2.124,1.203 -3.791,2.857 -5.003,4.963c-1.211,2.106 -1.82,4.536 -1.826,7.29Zm107.666,29.449c-4.659,-0.01 -8.865,-1.132 -12.617,-3.367c-3.753,-2.235 -6.731,-5.259 -8.933,-9.072c-2.203,-3.813 -3.299,-8.066 -3.29,-12.759c0.01,-4.658 1.124,-8.856 3.342,-12.591c2.218,-3.736 5.208,-6.706 8.97,-8.908c3.762,-2.203 7.972,-3.299 12.631,-3.29c4.658,0.01 8.864,1.115 12.617,3.316c3.753,2.201 6.731,5.183 8.933,8.945c2.203,3.762 3.299,7.972 3.29,12.631c-0.01,4.726 -1.124,8.983 -3.342,12.77c-2.218,3.787 -5.208,6.79 -8.97,9.01c-3.762,2.219 -7.973,3.324 -12.631,3.315Zm0.014,-6.886c3.366,0.007 6.369,-0.778 9.007,-2.353c2.639,-1.576 4.718,-3.748 6.237,-6.516c1.519,-2.769 2.282,-5.904 2.289,-9.406c0.007,-3.435 -0.752,-6.497 -2.277,-9.186c-1.524,-2.69 -3.594,-4.819 -6.209,-6.389c-2.615,-1.57 -5.606,-2.358 -8.973,-2.365c-3.332,-0.007 -6.326,0.769 -8.981,2.328c-2.656,1.559 -4.743,3.68 -6.262,6.363c-1.519,2.683 -2.282,5.759 -2.289,9.227c-0.007,3.503 0.743,6.633 2.251,9.39c1.507,2.758 3.586,4.93 6.235,6.517c2.649,1.586 5.64,2.383 8.972,2.39Zm73.794,6.017l0.149,-72.225l7.192,0.015l-0.149,72.225l-7.192,-0.015Zm80.996,1.187c-4.658,-0.009 -8.864,-1.132 -12.617,-3.367c-3.753,-2.235 -6.731,-5.259 -8.933,-9.072c-2.202,-3.813 -3.299,-8.066 -3.289,-12.758c0.009,-4.659 1.123,-8.856 3.341,-12.592c2.218,-3.736 5.208,-6.705 8.97,-8.908c3.762,-2.202 7.973,-3.299 12.631,-3.289c4.659,0.01 8.864,1.115 12.617,3.316c3.753,2.201 6.731,5.182 8.934,8.944c2.202,3.762 3.299,7.973 3.289,12.631c-0.01,4.727 -1.124,8.984 -3.342,12.771c-2.218,3.787 -5.208,6.79 -8.97,9.009c-3.762,2.22 -7.972,3.325 -12.631,3.315Zm0.014,-6.886c3.367,0.007 6.369,-0.777 9.008,-2.353c2.638,-1.576 4.717,-3.748 6.236,-6.516c1.519,-2.768 2.282,-5.903 2.289,-9.406c0.007,-3.434 -0.751,-6.496 -2.276,-9.186c-1.525,-2.689 -3.595,-4.819 -6.21,-6.388c-2.615,-1.57 -5.606,-2.358 -8.972,-2.365c-3.332,-0.007 -6.326,0.769 -8.982,2.328c-2.656,1.558 -4.743,3.679 -6.261,6.363c-1.519,2.683 -2.282,5.759 -2.289,9.227c-0.007,3.503 0.743,6.633 2.25,9.39c1.508,2.757 3.586,4.93 6.235,6.516c2.649,1.587 5.64,2.384 8.972,2.39Zm111.661,-3.444c-0.164,0.259 -0.335,0.514 -0.512,0.766c-1.841,2.614 -4.217,4.641 -7.128,6.08c-2.91,1.44 -6.201,2.155 -9.874,2.148c-4.454,-0.009 -8.448,-1.072 -11.98,-3.187c-3.532,-2.116 -6.314,-5.012 -8.347,-8.688c-2.033,-3.677 -3.044,-7.828 -3.035,-12.452c0.01,-4.591 1.03,-8.703 3.061,-12.338c2.03,-3.634 4.816,-6.51 8.357,-8.628c3.541,-2.118 7.521,-3.172 11.942,-3.163c3.74,0.007 7.08,0.737 10.018,2.188c2.939,1.451 5.315,3.479 7.129,6.084c0.149,0.214 0.293,0.431 0.432,0.652l0.016,-7.868l7.192,0.015l-0.095,46.059c-0.009,4.624 -1.072,8.66 -3.187,12.107c-2.116,3.447 -5.071,6.136 -8.866,8.066c-3.796,1.931 -8.193,2.891 -13.192,2.881c-4.828,-0.01 -9.128,-0.912 -12.899,-2.705c-3.771,-1.793 -6.809,-4.341 -9.114,-7.644l4.651,-4.632c1.899,2.554 4.309,4.548 7.231,5.983c2.921,1.434 6.354,2.155 10.298,2.163c5.475,0.011 9.822,-1.442 13.042,-4.36c3.219,-2.917 4.834,-6.876 4.844,-11.874l0.016,-7.653Zm-16.174,2.213c3.299,0.007 6.199,-0.71 8.701,-2.15c2.503,-1.44 4.445,-3.468 5.828,-6.083c1.382,-2.616 2.077,-5.675 2.084,-9.177c0.007,-3.469 -0.683,-6.505 -2.072,-9.109c-1.389,-2.604 -3.332,-4.649 -5.828,-6.133c-2.496,-1.484 -5.41,-2.23 -8.743,-2.237c-3.366,-0.007 -6.352,0.727 -8.956,2.201c-2.604,1.473 -4.64,3.509 -6.108,6.108c-1.467,2.598 -2.205,5.614 -2.212,9.049c-0.007,3.4 0.727,6.428 2.2,9.084c1.474,2.655 3.51,4.725 6.108,6.209c2.599,1.485 5.598,2.231 8.998,2.238Zm75.373,7.449l0.098,-47.946l7.192,0.015l-0.098,47.946l-7.192,-0.015Zm3.69,-58.293c-1.394,-0.003 -2.558,-0.498 -3.491,-1.486c-0.933,-0.989 -1.398,-2.18 -1.395,-3.574c0.003,-1.428 0.473,-2.617 1.41,-3.567c0.937,-0.951 2.103,-1.424 3.497,-1.421c1.462,0.003 2.66,0.481 3.593,1.435c0.933,0.954 1.398,2.145 1.395,3.574c-0.003,1.394 -0.473,2.583 -1.41,3.567c-0.937,0.984 -2.137,1.475 -3.599,1.472Zm59.876,37.103c0.297,2.503 0.991,4.766 2.083,6.788c1.508,2.792 3.637,4.964 6.388,6.517c2.752,1.552 5.946,2.333 9.585,2.34c2.89,0.006 5.561,-0.515 8.011,-1.565c2.451,-1.049 4.528,-2.609 6.232,-4.679l4.632,4.702c-2.249,2.648 -5.033,4.691 -8.352,6.129c-3.318,1.438 -6.882,2.154 -10.69,2.146c-4.795,-0.01 -9.094,-1.107 -12.898,-3.291c-3.804,-2.184 -6.807,-5.174 -9.01,-8.971c-2.202,-3.796 -3.299,-8.074 -3.289,-12.834c0.01,-4.727 1.098,-8.967 3.265,-12.72c2.167,-3.753 5.123,-6.722 8.868,-8.908c3.745,-2.185 7.93,-3.273 12.555,-3.264c4.386,0.009 8.261,1.012 11.623,3.008c3.362,1.996 6.001,4.747 7.915,8.254c1.914,3.506 2.866,7.521 2.857,12.043c-0.001,0.544 -0.037,1.173 -0.106,1.887c-0.07,0.714 -0.19,1.547 -0.362,2.499l-39.307,-0.081Zm0.031,-6.07l32.762,0.068c-0.165,-2.589 -0.739,-4.886 -1.723,-6.89c-1.253,-2.553 -3.051,-4.537 -5.394,-5.953c-2.344,-1.416 -5.165,-2.128 -8.463,-2.134c-3.468,-0.007 -6.505,0.743 -9.109,2.251c-2.605,1.508 -4.632,3.603 -6.083,6.286c-1.02,1.888 -1.684,4.012 -1.99,6.372Zm102.988,28.623c-2.619,-0.005 -5.109,-0.368 -7.471,-1.087c-2.361,-0.719 -4.51,-1.726 -6.446,-3.022c-1.935,-1.296 -3.632,-2.83 -5.091,-4.601l4.651,-4.683c1.866,2.316 4.013,4.037 6.442,5.165c2.429,1.127 5.123,1.693 8.081,1.699c3.196,0.007 5.697,-0.591 7.502,-1.795c1.804,-1.203 2.709,-2.893 2.714,-5.069c0.004,-2.041 -0.631,-3.64 -1.903,-4.799c-1.273,-1.159 -2.92,-2.089 -4.942,-2.79c-2.022,-0.701 -4.154,-1.377 -6.397,-2.028c-2.243,-0.651 -4.375,-1.471 -6.397,-2.461c-2.021,-0.991 -3.667,-2.363 -4.939,-4.117c-1.271,-1.754 -1.904,-4.076 -1.898,-6.966c0.005,-2.72 0.682,-5.082 2.029,-7.086c1.347,-2.003 3.255,-3.563 5.722,-4.681c2.468,-1.117 5.402,-1.672 8.803,-1.665c3.638,0.008 6.91,0.661 9.814,1.959c2.905,1.298 5.256,3.207 7.053,5.727l-4.651,4.632c-1.391,-1.839 -3.156,-3.262 -5.296,-4.27c-2.14,-1.007 -4.554,-1.514 -7.24,-1.519c-3.026,-0.007 -5.34,0.584 -6.94,1.77c-1.601,1.187 -2.403,2.733 -2.407,4.637c-0.004,1.87 0.63,3.334 1.903,4.391c1.273,1.056 2.921,1.91 4.943,2.56c2.022,0.65 4.154,1.301 6.397,1.952c2.243,0.65 4.375,1.505 6.396,2.563c2.021,1.058 3.667,2.49 4.939,4.295c1.271,1.805 1.904,4.22 1.898,7.247c-0.009,4.318 -1.572,7.741 -4.689,10.268c-3.116,2.527 -7.31,3.785 -12.58,3.774Z" style="fill:#fff;"/><path d="M1248.77,130.563c0.301,-0.316 0.301,-0.813 0,-1.129l-23.145,-24.286c-4.38,-4.596 -4.217,-11.896 0.363,-16.291c4.578,-4.394 11.85,-4.231 16.228,0.363l23.703,24.873c0.154,0.161 0.365,0.252 0.587,0.253c0.222,0.001 0.435,-0.089 0.589,-0.248l24.2,-24.95c4.418,-4.556 11.691,-4.655 16.23,-0.221c4.542,4.435 4.64,11.736 0.22,16.294l-23.499,24.228c-0.308,0.318 -0.308,0.823 0,1.14l23.499,24.209c4.42,4.557 4.322,11.858 -0.22,16.294c-4.539,4.433 -11.812,4.335 -16.23,-0.221l-24.2,-24.951c-0.154,-0.159 -0.367,-0.248 -0.589,-0.247c-0.222,0.001 -0.433,0.092 -0.587,0.253l-23.703,24.872c-4.378,4.594 -11.65,4.757 -16.228,0.364c-4.58,-4.395 -4.743,-11.695 -0.363,-16.291l23.145,-24.308Zm-758.667,43.79c-8.732,0 -16.654,-2.105 -23.764,-6.316c-7.111,-4.212 -12.756,-9.9 -16.935,-17.065c-4.179,-7.165 -6.269,-15.148 -6.269,-23.947c0,-8.8 2.09,-16.719 6.269,-23.759c4.179,-7.039 9.824,-12.665 16.935,-16.876c7.11,-4.211 15.032,-6.317 23.764,-6.317c8.857,0 16.841,2.074 23.952,6.223c7.111,4.148 12.756,9.773 16.935,16.876c4.179,7.102 6.268,15.053 6.268,23.853c0,8.799 -2.089,16.782 -6.268,23.947c-4.179,7.165 -9.824,12.853 -16.935,17.065c-7.111,4.211 -15.095,6.316 -23.952,6.316Zm0,-19.987c5.115,-0 9.637,-1.163 13.567,-3.488c3.929,-2.326 6.986,-5.563 9.169,-9.711c2.183,-4.149 3.274,-8.863 3.274,-14.142c0,-5.28 -1.122,-9.931 -3.368,-13.954c-2.245,-4.022 -5.302,-7.196 -9.169,-9.522c-3.867,-2.326 -8.358,-3.488 -13.473,-3.488c-4.99,-0 -9.449,1.162 -13.379,3.488c-3.93,2.326 -6.986,5.5 -9.169,9.522c-2.183,4.023 -3.275,8.674 -3.275,13.954c0,5.279 1.092,9.993 3.275,14.142c2.183,4.148 5.239,7.385 9.169,9.711c3.93,2.325 8.389,3.488 13.379,3.488Zm104.038,19.987c-7.561,0 -14.316,-1.697 -20.266,-5.091c-5.95,-3.394 -10.578,-8.067 -13.884,-14.018c-3.306,-5.951 -4.959,-12.852 -4.959,-20.7l0,-52.585l20.584,-0l-0,51.665c-0,4.4 0.717,8.14 2.152,11.22c1.434,3.079 3.555,5.436 6.362,7.071c2.807,1.634 6.164,2.451 10.073,2.451c5.947,-0 10.511,-1.791 13.692,-5.374c3.181,-3.583 4.771,-8.705 4.771,-15.368l0,-51.665l20.584,-0l-0,52.608c-0,7.92 -1.653,14.865 -4.959,20.836c-3.306,5.971 -7.899,10.622 -13.778,13.954c-5.88,3.331 -12.671,4.996 -20.372,4.996Zm77.467,-11.782l-0,9.897l-20.584,-0l0,-135.764l20.584,0l-0,55.319c2.603,-3.011 5.722,-5.517 9.356,-7.519c5.364,-2.954 11.414,-4.431 18.151,-4.431c8.108,0 15.437,2.106 21.986,6.317c6.55,4.211 11.727,9.868 15.532,16.97c3.804,7.103 5.707,15.117 5.707,24.042c-0,8.799 -1.903,16.75 -5.707,23.853c-3.805,7.102 -8.982,12.728 -15.532,16.876c-6.549,4.148 -13.878,6.222 -21.986,6.222c-6.862,0 -12.974,-1.477 -18.338,-4.431c-3.567,-1.964 -6.623,-4.414 -9.169,-7.351Zm24.138,-7.828c4.99,0 9.388,-1.163 13.192,-3.488c3.805,-2.326 6.799,-5.563 8.982,-9.711c2.183,-4.148 3.275,-8.925 3.275,-14.331c0,-5.405 -1.092,-10.182 -3.275,-14.33c-2.183,-4.149 -5.177,-7.386 -8.982,-9.711c-3.804,-2.326 -8.202,-3.489 -13.192,-3.489c-4.99,0 -9.418,1.163 -13.285,3.489c-3.868,2.325 -6.862,5.562 -8.982,9.711c-2.121,4.148 -3.181,8.925 -3.181,14.33c-0,5.406 1.06,10.183 3.181,14.331c2.12,4.148 5.114,7.385 8.982,9.711c3.867,2.325 8.295,3.488 13.285,3.488Zm64.368,19.61l0,-135.763l20.584,-0l-0,135.763l-20.584,0Zm57.849,-39.409c0.56,2.358 1.376,4.558 2.449,6.6c2.246,4.274 5.427,7.574 9.544,9.899c4.116,2.326 8.857,3.489 14.221,3.489c4.616,-0 8.888,-0.817 12.818,-2.452c3.929,-1.634 7.266,-4.022 10.011,-7.165l13.098,13.388c-4.366,5.154 -9.668,9.051 -15.905,11.691c-6.237,2.639 -12.849,3.959 -19.835,3.959c-8.982,0 -17.059,-2.042 -24.232,-6.128c-7.173,-4.085 -12.849,-9.711 -17.029,-16.876c-4.179,-7.165 -6.268,-15.211 -6.268,-24.136c-0,-8.925 2.058,-16.939 6.175,-24.041c4.117,-7.103 9.699,-12.728 16.747,-16.876c7.049,-4.149 14.877,-6.223 23.484,-6.223c8.358,0 15.75,1.949 22.174,5.846c6.425,3.896 11.477,9.239 15.157,16.027c3.68,6.788 5.52,14.519 5.52,23.193c0,1.509 -0.093,3.048 -0.28,4.62c-0.187,1.571 -0.468,3.3 -0.842,5.185l-67.007,0Zm0.056,-16.97l47.813,-0c-0.54,-2.665 -1.333,-5.053 -2.381,-7.165c-1.872,-3.772 -4.523,-6.663 -7.953,-8.674c-3.431,-2.012 -7.641,-3.017 -12.631,-3.017c-5.239,-0 -9.793,1.131 -13.66,3.394c-3.867,2.263 -6.861,5.437 -8.982,9.522c-0.946,1.824 -1.682,3.803 -2.206,5.94Zm143.552,4.303l0,52.076l-20.523,0l0,-135.361l20.523,-0l0,55.276c2.463,-2.955 5.411,-5.431 8.843,-7.43c5.274,-3.07 11.243,-4.606 17.909,-4.606c6.668,0 12.614,1.504 17.838,4.512c5.224,3.008 9.328,7.176 12.314,12.502c2.985,5.327 4.477,11.5 4.477,18.519l0,56.588l-20.522,0l-0,-52.076c-0,-6.016 -1.897,-10.967 -5.691,-14.853c-3.793,-3.885 -8.66,-5.828 -14.599,-5.828c-4.042,0 -7.61,0.878 -10.704,2.632c-3.094,1.755 -5.512,4.199 -7.253,7.333c-1.741,3.133 -2.612,6.705 -2.612,10.716Zm98.877,12.784c0.558,2.351 1.373,4.544 2.442,6.58c2.239,4.261 5.411,7.551 9.515,9.87c4.105,2.319 8.831,3.478 14.18,3.478c4.602,0 8.862,-0.815 12.78,-2.444c3.917,-1.629 7.245,-4.011 9.981,-7.144l13.06,13.348c-4.353,5.139 -9.64,9.024 -15.859,11.656c-6.219,2.632 -12.811,3.948 -19.776,3.948c-8.955,0 -17.009,-2.036 -24.161,-6.11c-7.151,-4.073 -12.811,-9.682 -16.977,-16.826c-4.167,-7.144 -6.25,-15.165 -6.25,-24.064c-0,-8.899 2.052,-16.889 6.156,-23.971c4.105,-7.081 9.671,-12.69 16.698,-16.826c7.028,-4.136 14.833,-6.204 23.415,-6.204c8.333,0 15.703,1.943 22.108,5.828c6.406,3.886 11.443,9.212 15.112,15.98c3.669,6.769 5.504,14.477 5.504,23.125c0,1.504 -0.093,3.039 -0.28,4.606c-0.186,1.566 -0.466,3.29 -0.839,5.17l-66.809,-0Zm0.056,-16.92l47.671,-0c-0.537,-2.657 -1.329,-5.038 -2.374,-7.144c-1.866,-3.761 -4.509,-6.643 -7.929,-8.649c-3.42,-2.005 -7.618,-3.008 -12.593,-3.008c-5.224,0 -9.764,1.128 -13.62,3.384c-3.856,2.256 -6.841,5.421 -8.955,9.495c-0.944,1.818 -1.677,3.792 -2.2,5.922Zm84.302,56.212l0,-135.361l20.523,-0l-0,135.361l-20.523,0Zm38.819,0l-0,-90.241l20.523,0l-0,90.241l-20.523,0Zm10.261,-106.785c-3.482,-0 -6.374,-1.191 -8.675,-3.572c-2.301,-2.381 -3.452,-5.327 -3.452,-8.836c0,-3.51 1.151,-6.455 3.452,-8.836c2.301,-2.382 5.193,-3.572 8.675,-3.572c3.607,-0 6.53,1.19 8.769,3.572c2.239,2.381 3.358,5.326 3.358,8.836c0,3.509 -1.119,6.455 -3.358,8.836c-2.239,2.381 -5.162,3.572 -8.769,3.572Zm-788.699,95.003c-2.546,2.937 -5.603,5.387 -9.169,7.351c-5.364,2.954 -11.477,4.431 -18.338,4.431c-8.109,0 -15.434,-2.072 -21.977,-6.218c-6.542,-4.145 -11.719,-9.77 -15.531,-16.876c-3.812,-7.105 -5.717,-15.071 -5.717,-23.898c-0,-8.955 1.902,-16.969 5.707,-24.043c3.805,-7.074 8.97,-12.717 15.495,-16.928c6.524,-4.211 13.866,-6.317 22.023,-6.317c6.861,0 12.943,1.477 18.244,4.431c3.588,1.999 6.675,4.501 9.263,7.507l0,-55.307l20.584,0l-0,135.764l-20.584,-0l0,-9.897Zm-24.139,-7.828c5.115,0 9.567,-1.173 13.358,-3.519c3.79,-2.346 6.753,-5.583 8.888,-9.711c2.135,-4.128 3.203,-8.894 3.203,-14.3c-0,-5.454 -1.074,-10.237 -3.221,-14.349c-2.147,-4.112 -5.109,-7.337 -8.888,-9.675c-3.779,-2.337 -8.194,-3.506 -13.246,-3.506c-5.053,0 -9.476,1.175 -13.271,3.523c-3.795,2.348 -6.789,5.588 -8.982,9.719c-2.193,4.132 -3.29,8.895 -3.29,14.288c0,5.406 1.087,10.18 3.261,14.323c2.173,4.144 5.181,7.381 9.025,9.711c3.844,2.331 8.232,3.496 13.163,3.496Z" style="fill:#fff;"/></g><path d="M162.76,280.773l21.532,22.104c4.407,4.524 4.309,11.772 -0.219,16.176c-4.527,4.403 -11.781,4.304 -16.187,-0.219l-22.181,-22.772l-21.726,22.699c-4.367,4.563 -11.619,4.724 -16.185,0.362c-4.566,-4.364 -4.728,-11.611 -0.361,-16.173l21.207,-22.158c-9.053,-7.311 -22.213,-18.612 -31.634,-29.561c-8.62,-10.019 -13.8,-20.323 -13.811,-27.865c-0.012,-7.542 5.137,-17.861 13.728,-27.905c15.687,-18.341 41.82,-37.694 41.82,-37.694l0.001,-0.001c4.033,-2.978 9.538,-2.986 13.58,-0.019l0.001,0c-0,0 26.191,19.279 41.933,37.575c8.62,10.019 13.8,20.323 13.812,27.865c0.011,7.543 -5.138,17.862 -13.729,27.906c-9.399,10.99 -22.548,22.344 -31.581,29.68Zm-17.064,-15.612c8.112,-6.435 21.781,-17.871 31.241,-28.931c2.672,-3.124 4.992,-6.19 6.613,-9.084c0.825,-1.473 1.627,-2.73 1.625,-3.924c-0.002,-1.195 -0.808,-2.45 -1.637,-3.921c-1.63,-2.889 -3.959,-5.948 -6.641,-9.065c-9.493,-11.034 -23.198,-22.432 -31.329,-28.844c-8.112,6.435 -21.781,17.872 -31.241,28.932c-2.672,3.124 -4.992,6.19 -6.613,9.083c-0.825,1.473 -1.627,2.731 -1.625,3.925c0.002,1.194 0.808,2.449 1.637,3.92c1.63,2.889 3.959,5.949 6.641,9.065c9.493,11.034 23.198,22.432 31.329,28.844Zm-143.541,-126.328c0,-0 18.88,-26.151 36.785,-41.859c9.886,-8.674 20.089,-13.848 27.523,-13.848c7.434,0 17.637,5.174 27.523,13.848c17.905,15.708 36.785,41.859 36.785,41.859l0.001,0.001c2.872,3.99 2.872,9.368 -0,13.359l-0.001,0.001c-0,-0 -18.88,26.15 -36.785,41.858c-9.886,8.674 -20.089,13.848 -27.523,13.848c-7.434,0 -17.637,-5.174 -27.523,-13.848c-17.905,-15.708 -36.785,-41.858 -36.785,-41.858l-0,-0.001c-2.873,-3.991 -2.873,-9.369 -0,-13.359l0,-0.001Zm23.602,6.68c6.257,8.098 17.454,21.844 28.288,31.348c3.034,2.662 6.01,4.975 8.821,6.59c1.358,0.781 2.496,1.572 3.597,1.572c1.101,0 2.24,-0.791 3.597,-1.572c2.811,-1.615 5.787,-3.928 8.821,-6.59c10.834,-9.504 22.031,-23.25 28.288,-31.348c-6.257,-8.098 -17.454,-21.843 -28.288,-31.348c-3.034,-2.661 -6.01,-4.974 -8.821,-6.59c-1.357,-0.78 -2.496,-1.572 -3.597,-1.572c-1.101,0 -2.239,0.792 -3.597,1.572c-2.811,1.616 -5.787,3.929 -8.821,6.59c-10.834,9.505 -22.031,23.25 -28.288,31.348Zm113.084,-12.243c0,-0 -26.162,-19.316 -41.876,-37.635c-8.606,-10.031 -13.77,-20.343 -13.77,-27.885c-0,-7.543 5.164,-17.854 13.77,-27.885c15.714,-18.319 41.876,-37.635 41.876,-37.635l0.001,-0c4.038,-2.973 9.542,-2.973 13.58,-0l0.001,0c0,0 26.162,19.316 41.877,37.635c8.605,10.031 13.77,20.342 13.77,27.885c-0,7.542 -5.165,17.854 -13.77,27.885c-15.715,18.319 -41.877,37.635 -41.877,37.635l-0.001,0c-4.038,2.973 -9.542,2.973 -13.58,0l-0.001,-0Zm6.791,-23.636c8.121,-6.423 21.809,-17.84 31.285,-28.887c2.677,-3.121 5.002,-6.183 6.627,-9.075c0.827,-1.472 1.631,-2.728 1.631,-3.922c0,-1.194 -0.804,-2.451 -1.631,-3.923c-1.625,-2.891 -3.95,-5.954 -6.627,-9.074c-9.476,-11.047 -23.163,-22.464 -31.285,-28.887c-8.121,6.423 -21.808,17.84 -31.285,28.887c-2.677,3.12 -5.002,6.183 -6.627,9.074c-0.827,1.472 -1.631,2.729 -1.631,3.923c0,1.194 0.804,2.45 1.631,3.922c1.625,2.892 3.95,5.954 6.627,9.075c9.476,11.047 23.164,22.464 31.285,28.887Zm143.477,42.56c0,-0 -18.88,26.15 -36.784,41.858c-9.887,8.674 -20.09,13.848 -27.524,13.848c-7.433,0 -17.636,-5.174 -27.523,-13.848c-17.905,-15.708 -36.785,-41.858 -36.785,-41.858l-0,-0.001c-2.873,-3.991 -2.873,-9.369 -0,-13.359l0,-0.001c0,-0 18.88,-26.151 36.785,-41.859c9.887,-8.674 20.09,-13.848 27.523,-13.848c7.434,0 17.637,5.174 27.524,13.848c17.904,15.708 36.784,41.859 36.784,41.859l0.001,0.001c2.872,3.99 2.872,9.368 -0,13.359l-0.001,0.001Zm-23.601,-6.681c-6.258,-8.098 -17.455,-21.843 -28.289,-31.348c-3.033,-2.661 -6.01,-4.974 -8.821,-6.59c-1.357,-0.78 -2.496,-1.572 -3.597,-1.572c-1.101,0 -2.239,0.792 -3.596,1.572c-2.812,1.616 -5.788,3.929 -8.822,6.59c-10.833,9.505 -22.031,23.25 -28.288,31.348c6.257,8.099 17.455,21.844 28.288,31.348c3.034,2.662 6.01,4.975 8.822,6.59c1.357,0.781 2.495,1.572 3.596,1.572c1.101,0 2.24,-0.791 3.597,-1.572c2.811,-1.615 5.788,-3.928 8.821,-6.59c10.834,-9.504 22.031,-23.25 28.289,-31.348Z" style="fill:#fff;"/></g></svg>