<?xml version="1.0" encoding="UTF-8" standalone="no"?><svg width="100%" height="100%" viewBox="0 0 4334 4667" version="1.1" xmlns="http://www.w3.org/2000/svg" xmlns:xlink="http://www.w3.org/1999/xlink" xml:space="preserve" xmlns:serif="http://www.serif.com/" style="fill-rule:evenodd;clip-rule:evenodd;stroke-linejoin:round;stroke-miterlimit:2;"><rect id="DH-thicc" serif:id="DH thicc" x="0" y="0" width="4333.33" height="4666.67" style="fill:none;"/><path d="M2081.87,2290.4c49.666,-36.676 117.446,-36.775 167.218,-0.242l0.012,0.009c-0,-0 316.805,233.204 507.227,454.523c104.683,121.668 167.418,246.878 167.556,338.469c0.138,91.596 -62.222,216.988 -166.542,338.957c-112.943,132.051 -270.622,268.455 -379.815,357.243l258.247,265.119c54.264,55.707 53.055,144.954 -2.699,199.174c-55.745,54.211 -145.052,53.002 -199.308,-2.697l-266.206,-273.29l-260.715,272.4c-53.764,56.173 -143.057,58.166 -199.276,4.446c-56.228,-53.728 -58.222,-142.961 -4.45,-199.143l254.351,-265.751c-109.442,-88.485 -267.267,-224.259 -380.46,-355.817c-104.683,-121.669 -167.418,-246.879 -167.556,-338.47c-0.138,-91.595 62.222,-216.987 166.543,-338.957c188.072,-219.89 500.258,-451.808 505.787,-455.908c0.05,-0.038 0.086,-0.065 0.086,-0.065l1.374,4.171c0.133,-0.099 0.253,-0.189 0.362,-0.269c-0.498,-2.127 -1.166,-4.323 -1.736,-3.902Zm-0.852,0.84c-0.813,1.073 -1.074,2.499 -0.637,3.823c0.144,0.434 0.354,0.833 0.617,1.186c0.298,-0.223 0.577,-0.432 0.836,-0.626c-1.071,-1.291 -1.86,-2.931 -0.816,-4.383Zm86.418,1295.9c98.132,-77.922 262.012,-215.225 375.607,-348.039c32.17,-37.612 60.114,-74.52 79.628,-109.361c9.718,-17.35 19.333,-32.09 19.312,-46.157c-0.021,-14.069 -9.682,-28.784 -19.454,-46.11c-19.619,-34.787 -47.676,-71.618 -79.961,-109.14c-113.999,-132.496 -278.298,-269.34 -376.668,-346.984c-98.132,77.922 -262.011,215.226 -375.606,348.039c-32.17,37.612 -60.114,74.52 -79.628,109.361c-9.718,17.351 -19.333,32.09 -19.312,46.157c0.022,14.069 9.682,28.784 19.454,46.11c19.62,34.787 47.676,71.618 79.961,109.141c113.999,132.495 278.3,269.339 376.667,346.983Zm-1736.94,-1360.49c-35.355,-49.111 -35.374,-115.292 -0.055,-164.421c0.018,-0.025 0.063,-0.087 0.063,-0.087l2.141,4.185c0.069,-0.1 0.139,-0.199 0.209,-0.299c-0.828,-2.073 -1.924,-4.476 -2.35,-3.886c0.314,-0.436 228.539,-316.456 444.969,-506.336c120.075,-105.345 244.078,-168.009 334.36,-168.009c90.283,0 214.285,62.664 334.361,168.009c216.578,190.011 444.969,506.336 444.969,506.336l0.009,0.012c35.372,49.136 35.372,115.36 -0.001,164.496l-3.371,1.732c0.143,0.016 1.992,0.171 3.362,-1.719c0,-0 -228.39,316.323 -444.968,506.334c-120.076,105.346 -244.078,168.009 -334.361,168.009c-90.282,-0 -214.285,-62.663 -334.36,-168.009c-214.707,-188.369 -441.021,-500.876 -444.917,-506.264c1.228,1.635 2.814,1.675 3.221,1.656l0.106,0.001c0.897,0 1.751,-0.288 2.45,-0.796c-0.466,-0.639 -0.867,-1.19 -1.202,-1.65l-1.248,2.446l-0.016,-0.007l0.009,-0.001l-3.38,-1.732Zm1555.3,1.732l3.362,-1.719c-0.781,1.076 -2.03,1.715 -3.362,1.719Zm-1555.24,-1.649c-0.034,-0.047 -0.06,-0.083 -0.06,-0.083l3.371,1.733l-0.09,0.006c-1.269,-0.032 -2.456,-0.642 -3.221,-1.656Zm-0.69,-163.275c-0.281,0.996 -0.185,2.079 0.302,3.03c0.317,0.619 0.776,1.135 1.325,1.518c0.115,-0.17 0.23,-0.34 0.346,-0.509c-1.197,-0.932 -2.397,-2.336 -1.973,-4.039Zm1554.67,162.487l1.243,2.431c-0.05,-0.143 -0.48,-1.367 -1.026,-2.73c-0.069,0.095 -0.141,0.195 -0.217,0.299Zm-1263.39,-81.543c75.78,97.978 210.222,262.776 340.32,376.915c36.524,32.044 72.349,59.894 106.196,79.349c8.258,4.747 15.86,9.507 23.075,13.075c6.653,3.289 12.92,5.575 19.098,5.575c6.178,-0 12.446,-2.286 19.099,-5.575c7.215,-3.568 14.816,-8.328 23.075,-13.075c33.846,-19.455 69.672,-47.305 106.196,-79.349c130.098,-114.139 264.54,-278.936 340.32,-376.917c-75.78,-97.978 -210.222,-262.775 -340.32,-376.914c-36.524,-32.043 -72.35,-59.894 -106.196,-79.349c-8.259,-4.747 -15.86,-9.507 -23.075,-13.074c-6.653,-3.29 -12.921,-5.576 -19.099,-5.576c-6.178,0 -12.445,2.286 -19.098,5.576c-7.215,3.567 -14.817,8.327 -23.075,13.074c-33.847,19.455 -69.672,47.306 -106.196,79.349c-130.099,114.139 -264.54,278.938 -340.32,376.916Zm1361.91,-145.88l-0.013,-0.005c0,-0 -316.456,-233.655 -506.546,-455.245c-104.502,-121.819 -167.049,-247.12 -167.049,-338.714c-0,-91.593 62.547,-216.894 167.049,-338.713c188.402,-219.623 500.936,-451.096 506.471,-455.189c0.049,-0.037 0.086,-0.064 0.086,-0.064l1.37,4.171c0.133,-0.099 0.254,-0.188 0.363,-0.269c-0.496,-2.127 -1.163,-4.322 -1.733,-3.902c49.719,-36.605 117.499,-36.605 167.217,0l0.012,0.009l-1.372,4.169c0.547,0.406 1.294,0.962 2.233,1.663c0.262,-0.353 0.472,-0.752 0.615,-1.186c0.56,-1.706 -0.035,-3.577 -1.476,-4.646c0,-0 316.455,233.654 506.545,455.244c104.503,121.819 167.05,247.12 167.05,338.713c-0,91.594 -62.547,216.895 -167.05,338.714c-190.09,221.59 -506.546,455.245 -506.546,455.245l-0.012,0.007c-0.715,0.523 -1.576,0.808 -2.461,0.808l-0.013,-0.008l0.003,0.008l0.01,0c-0,0 1.119,0.176 2.461,-0.808c-49.696,36.587 -117.432,36.604 -167.145,0.05c1.167,0.826 2.151,0.782 2.353,0.763l0.047,-0c1.372,-0 2.625,-0.671 3.393,-1.747c-0.768,-0.531 -1.532,-1.07 -2.291,-1.617l-1.102,3.364l-0.009,-0.005l-0.038,0.005c-0.843,-0.01 -1.663,-0.277 -2.353,-0.763c-0.023,-0.017 -0.046,-0.034 -0.069,-0.052Zm-0.855,-1587.09c-0.816,1.072 -1.078,2.499 -0.642,3.826c0.143,0.433 0.352,0.831 0.614,1.183c0.299,-0.223 0.579,-0.431 0.839,-0.625c-1.07,-1.293 -1.858,-2.934 -0.811,-4.384Zm84.461,1296.02c98.25,-77.783 262.341,-214.856 376.138,-347.511c32.227,-37.568 60.228,-74.437 79.794,-109.251c9.745,-17.338 19.383,-32.066 19.383,-46.134c0,-14.067 -9.638,-28.795 -19.383,-46.133c-19.566,-34.814 -47.567,-71.684 -79.794,-109.251c-113.797,-132.655 -277.886,-269.728 -376.138,-347.512c-98.25,77.783 -262.34,214.857 -376.137,347.512c-32.227,37.567 -60.228,74.437 -79.794,109.251c-9.745,17.338 -19.383,32.066 -19.383,46.133c-0,14.068 9.638,28.796 19.383,46.134c19.566,34.814 47.567,71.683 79.794,109.251c113.797,132.654 277.888,269.728 376.137,347.511Zm177.495,519.196c-35.354,-49.111 -35.373,-115.292 -0.054,-164.421c0.018,-0.025 0.062,-0.087 0.062,-0.087l2.142,4.185c0.069,-0.1 0.139,-0.199 0.208,-0.299c-0.827,-2.073 -1.923,-4.476 -2.35,-3.886c0.315,-0.436 228.54,-316.456 444.97,-506.336c120.075,-105.345 244.078,-168.009 334.36,-168.009c90.282,0 214.285,62.664 334.36,168.009c216.579,190.011 444.97,506.336 444.97,506.336l0.009,0.012c35.372,49.136 35.371,115.36 -0.001,164.496l-3.371,1.732c0.142,0.016 1.992,0.171 3.362,-1.719c-0,-0 -228.39,316.323 -444.969,506.334c-120.075,105.346 -244.078,168.009 -334.36,168.009c-90.282,-0 -214.285,-62.663 -334.36,-168.009c-214.704,-188.365 -441.014,-500.866 -444.917,-506.264c1.228,1.635 2.814,1.675 3.221,1.656l0.105,0.001c0.898,0 1.751,-0.288 2.451,-0.796c-0.466,-0.639 -0.867,-1.19 -1.202,-1.65l-1.249,2.446l-0.015,-0.007l0.009,-0.001l-3.381,-1.732Zm1555.31,1.732l3.362,-1.719c-0.782,1.076 -2.031,1.715 -3.362,1.719Zm-1555.24,-1.649c-0.032,-0.043 -0.061,-0.083 -0.061,-0.083l3.372,1.733l-0.09,0.006c-1.269,-0.032 -2.456,-0.642 -3.221,-1.656Zm-0.691,-163.275c-0.28,0.996 -0.185,2.079 0.303,3.03c0.317,0.619 0.776,1.135 1.325,1.518c0.115,-0.17 0.23,-0.34 0.346,-0.509c-1.197,-0.932 -2.397,-2.336 -1.974,-4.039Zm1554.67,162.487l1.242,2.431c-0.049,-0.143 -0.48,-1.367 -1.025,-2.73c-0.069,0.095 -0.141,0.195 -0.217,0.299Zm-286.012,-81.544c-75.781,-97.978 -210.222,-262.776 -340.32,-376.915c-36.524,-32.043 -72.35,-59.894 -106.197,-79.349c-8.258,-4.747 -15.859,-9.507 -23.075,-13.074c-6.652,-3.29 -12.92,-5.576 -19.098,-5.576c-6.178,0 -12.445,2.286 -19.098,5.576c-7.215,3.567 -14.817,8.327 -23.075,13.074c-33.847,19.455 -69.673,47.306 -106.197,79.349c-130.098,114.139 -264.54,278.937 -340.319,376.917c75.78,97.978 210.221,262.775 340.319,376.914c36.524,32.044 72.35,59.894 106.197,79.349c8.258,4.747 15.86,9.507 23.075,13.075c6.653,3.289 12.92,5.575 19.098,5.575c6.178,-0 12.446,-2.286 19.098,-5.575c7.216,-3.568 14.817,-8.328 23.075,-13.075c33.847,-19.455 69.673,-47.305 106.197,-79.349c130.098,-114.139 264.539,-278.938 340.32,-376.916Z" style="fill:#fff;"/></svg>