<?xml version="1.0" encoding="UTF-8" standalone="no"?>
<!DOCTYPE svg PUBLIC "-//W3C//DTD SVG 1.1//EN" "http://www.w3.org/Graphics/SVG/1.1/DTD/svg11.dtd">
<svg width="100%" height="100%" viewBox="0 0 316 78" version="1.1" xmlns="http://www.w3.org/2000/svg" xmlns:xlink="http://www.w3.org/1999/xlink" xml:space="preserve" xmlns:serif="http://www.serif.com/" style="fill-rule:evenodd;clip-rule:evenodd;stroke-linejoin:round;stroke-miterlimit:2;">
    <g transform="matrix(1,0,0,1,-2116.57,-13223.3)">
        <g transform="matrix(0.151595,0,0,0.0895643,2049.16,13174.6)">
            <path d="M2132.72,1132.85L2132.73,1124.55C2132.74,1122 2133.96,1119.94 2135.47,1119.94L2146.85,1119.98C2148.36,1119.99 2149.58,1122.06 2149.58,1124.61L2149.43,1248.03C2149.41,1261.35 2147.58,1272.96 2143.98,1282.88C2140.37,1292.84 2135.33,1300.62 2128.85,1306.2C2122.49,1311.68 2115.11,1314.45 2106.73,1314.42C2098.64,1314.39 2091.45,1311.81 2085.14,1306.73C2078.72,1301.57 2073.56,1294.22 2069.64,1284.71C2068.88,1282.88 2069.01,1280.38 2069.95,1278.8L2077.32,1266.38C2077.88,1265.44 2078.66,1264.95 2079.45,1265.05C2080.24,1265.15 2080.96,1265.82 2081.43,1266.9C2084.18,1273.15 2087.67,1278.03 2091.89,1281.54C2096.18,1285.1 2101.22,1286.85 2107,1286.87C2114.89,1286.89 2121.17,1283.49 2125.81,1276.38C2130.35,1269.41 2132.57,1259.91 2132.58,1247.97L2132.59,1240.39C2130.22,1244.22 2127.51,1247.41 2124.45,1249.97C2119.49,1254.12 2113.87,1256.22 2107.61,1256.2C2100.03,1256.17 2093.25,1253.09 2087.24,1247C2081.23,1240.91 2076.5,1232.58 2073.04,1221.99C2069.6,1211.48 2067.88,1199.61 2067.89,1186.38C2067.91,1173.24 2069.65,1161.48 2073.09,1151.08C2076.54,1140.62 2081.28,1132.34 2087.3,1126.24C2093.32,1120.14 2100.09,1117.09 2107.61,1117.11C2113.99,1117.13 2119.67,1119.27 2124.68,1123.45C2127.7,1125.99 2130.39,1129.12 2132.72,1132.85ZM2109.74,1228.79C2114.44,1228.8 2118.58,1227.12 2122.14,1223.64C2125.66,1220.22 2128.38,1215.4 2130.32,1209.18C2132.32,1202.79 2133.29,1195.31 2133.3,1186.75C2133.31,1178.29 2132.34,1170.87 2130.34,1164.52C2128.39,1158.31 2125.65,1153.42 2122.13,1149.88C2118.58,1146.31 2114.42,1144.56 2109.68,1144.54C2104.86,1144.52 2100.58,1146.26 2096.85,1149.84C2093.17,1153.36 2090.29,1158.24 2088.21,1164.45C2086.11,1170.76 2085.07,1178.1 2085.06,1186.44C2085.05,1194.71 2086.09,1202.07 2088.2,1208.53C2090.29,1214.89 2093.17,1219.85 2096.84,1223.4C2100.56,1227 2104.87,1228.77 2109.74,1228.79ZM990.633,1142.55L974.225,1142.5C972.718,1142.49 971.498,1140.42 971.501,1137.87L971.522,1120.51C971.525,1117.96 972.75,1115.89 974.258,1115.9L990.666,1115.95L990.726,1066.45C990.729,1063.9 991.954,1061.83 993.462,1061.84L1004.85,1061.88C1006.36,1061.88 1007.58,1063.96 1007.57,1066.51L1007.51,1116.01L1023.84,1116.07C1025.35,1116.08 1026.57,1118.15 1026.56,1120.7L1026.54,1138.06C1026.54,1140.61 1025.32,1142.67 1023.81,1142.67L1007.48,1142.61L1007.35,1249.11C1007.35,1251.66 1006.12,1253.73 1004.61,1253.72L993.228,1253.68C991.721,1253.68 990.501,1251.61 990.504,1249.05L990.633,1142.55ZM1108.64,1196.95C1109.18,1201.04 1110,1204.82 1111.12,1208.32C1113.26,1215.01 1116.27,1220.22 1120.17,1223.95C1124.14,1227.74 1128.76,1229.61 1134.01,1229.62C1138.19,1229.64 1142.06,1228.38 1145.61,1225.8C1149.09,1223.29 1152.03,1219.54 1154.44,1214.58C1154.94,1213.56 1155.66,1212.95 1156.43,1212.89C1157.2,1212.84 1157.95,1213.34 1158.5,1214.27L1165.83,1226.87C1166.82,1228.57 1166.88,1231.28 1165.97,1233.1C1162.14,1240.73 1157.4,1246.63 1151.75,1250.78C1146.16,1254.88 1140.15,1256.93 1133.73,1256.91C1125.64,1256.88 1118.38,1253.72 1111.96,1247.47C1105.51,1241.21 1100.43,1232.63 1096.69,1221.75C1092.97,1210.89 1091.1,1198.65 1091.12,1185.03C1091.13,1171.5 1092.99,1159.38 1096.65,1148.64C1100.33,1137.88 1105.34,1129.36 1111.68,1123.09C1118.02,1116.83 1125.11,1113.69 1132.94,1113.72C1140.41,1113.74 1147,1116.67 1152.73,1122.42C1158.48,1128.2 1162.99,1136.15 1166.26,1146.3C1169.5,1156.35 1171.13,1167.84 1171.12,1180.8C1171.12,1182.38 1171.06,1184.21 1170.94,1186.29C1170.82,1188.31 1170.62,1190.67 1170.33,1193.36C1170.1,1195.56 1168.96,1197.16 1167.64,1197.16L1108.64,1196.95ZM1108.73,1171.45L1154.29,1171.61C1153.89,1167.3 1153.19,1163.36 1152.16,1159.81C1150.41,1153.8 1147.92,1149.11 1144.65,1145.78C1141.34,1142.38 1137.33,1140.74 1132.66,1140.73C1127.7,1140.71 1123.34,1142.48 1119.62,1146.13C1115.93,1149.74 1113.07,1154.76 1111.02,1161.18C1110.01,1164.33 1109.25,1167.75 1108.73,1171.45ZM1279.73,1257.41C1271.79,1257.39 1264.64,1254.17 1258.26,1247.82C1251.87,1241.47 1246.83,1232.82 1243.13,1221.9C1239.44,1210.99 1237.59,1198.83 1237.6,1185.4C1237.62,1171.96 1239.5,1159.87 1243.23,1149.13C1246.95,1138.37 1252.02,1129.86 1258.42,1123.59C1264.81,1117.34 1271.97,1114.2 1279.91,1114.23C1286,1114.25 1291.69,1116.23 1296.98,1120.14C1302.3,1124.08 1306.83,1129.63 1310.59,1136.8C1311.54,1138.62 1311.5,1141.39 1310.48,1143.12L1302.95,1155.94C1302.42,1156.85 1301.69,1157.34 1300.94,1157.3C1300.18,1157.26 1299.47,1156.7 1298.97,1155.75C1296.66,1151.33 1293.88,1147.93 1290.62,1145.55C1287.32,1143.13 1283.74,1141.93 1279.87,1141.92C1275.06,1141.9 1270.76,1143.75 1266.96,1147.52C1263.18,1151.28 1260.2,1156.39 1258.04,1162.86C1255.86,1169.4 1254.78,1176.93 1254.77,1185.46C1254.76,1194.01 1255.82,1201.63 1258,1208.32C1260.14,1214.93 1263.1,1220.15 1266.88,1223.97C1270.66,1227.81 1274.96,1229.7 1279.77,1229.72C1283.69,1229.74 1287.32,1228.56 1290.65,1226.17C1293.94,1223.81 1296.77,1220.38 1299.14,1215.89C1299.65,1214.94 1300.36,1214.38 1301.11,1214.35C1301.87,1214.32 1302.59,1214.82 1303.12,1215.73L1310.62,1228.6C1311.63,1230.34 1311.67,1233.11 1310.71,1234.93C1306.88,1242.16 1302.27,1247.73 1296.89,1251.63C1291.54,1255.5 1285.82,1257.44 1279.73,1257.41ZM1398.28,1174.89L1398.19,1250.47C1398.19,1253.03 1396.96,1255.09 1395.45,1255.08L1384.07,1255.05C1382.56,1255.04 1381.34,1252.97 1381.34,1250.41L1381.58,1056.88C1381.58,1054.33 1382.81,1052.26 1384.31,1052.27L1395.7,1052.31C1397.21,1052.31 1398.43,1054.38 1398.42,1056.94L1398.34,1128.71C1400.06,1126.14 1401.95,1123.87 1404.04,1121.89C1409.06,1117.11 1414.74,1114.7 1421.09,1114.72C1427.46,1114.74 1433.09,1117.23 1437.98,1122.11C1442.9,1127.02 1446.75,1133.8 1449.51,1142.45C1452.23,1150.98 1453.61,1160.81 1453.6,1171.94L1453.5,1250.67C1453.5,1253.22 1452.28,1255.28 1450.77,1255.28L1439.38,1255.24C1437.87,1255.23 1436.65,1253.16 1436.66,1250.61L1436.75,1175.16C1436.76,1165.28 1435.08,1157.2 1431.6,1151C1428.15,1144.87 1423.6,1141.88 1417.98,1141.86C1414.1,1141.84 1410.68,1143.22 1407.71,1146.07C1404.78,1148.88 1402.48,1152.74 1400.81,1157.65C1399.12,1162.63 1398.29,1168.38 1398.28,1174.89ZM1545.73,1175.4L1545.64,1250.99C1545.64,1253.54 1544.41,1255.6 1542.91,1255.6L1531.52,1255.56C1530.01,1255.55 1528.79,1253.48 1528.8,1250.93L1528.95,1122.45C1528.95,1119.9 1530.18,1117.83 1531.69,1117.84L1543.07,1117.88C1544.58,1117.88 1545.8,1119.96 1545.8,1122.51L1545.79,1129.22C1547.51,1126.65 1549.41,1124.38 1551.49,1122.4C1556.51,1117.62 1562.2,1115.21 1568.55,1115.23C1574.94,1115.26 1580.59,1117.93 1585.5,1123.18C1590.4,1128.41 1594.22,1135.38 1596.97,1144.08C1599.7,1152.73 1601.07,1162.18 1601.05,1172.45L1600.96,1251.18C1600.95,1253.73 1599.73,1255.8 1598.22,1255.79L1586.84,1255.75C1585.33,1255.75 1584.11,1253.67 1584.11,1251.12L1584.2,1175.67C1584.21,1165.79 1582.53,1157.71 1579.05,1151.51C1575.61,1145.38 1571.06,1142.39 1565.43,1142.37C1561.56,1142.36 1558.13,1143.73 1555.16,1146.58C1552.23,1149.39 1549.93,1153.25 1548.26,1158.16C1546.57,1163.14 1545.74,1168.89 1545.73,1175.4ZM1713.45,1258.93C1705.56,1258.9 1698.44,1255.66 1692.08,1249.25C1685.74,1242.86 1680.7,1234.2 1676.97,1223.28C1673.25,1212.37 1671.38,1200.2 1671.4,1186.78C1671.42,1173.42 1673.32,1161.39 1677.07,1150.68C1680.82,1139.99 1685.88,1131.49 1692.24,1125.19C1698.61,1118.88 1705.74,1115.71 1713.62,1115.74C1721.51,1115.77 1728.62,1118.95 1734.98,1125.26C1741.33,1131.56 1746.37,1140.1 1750.09,1150.88C1753.82,1161.66 1755.69,1173.72 1755.67,1187.07C1755.66,1200.6 1753.76,1212.78 1750.01,1223.62C1746.26,1234.45 1741.2,1243.05 1734.84,1249.4C1728.47,1255.77 1721.34,1258.95 1713.45,1258.93ZM1713.48,1231.23C1718.29,1231.25 1722.58,1229.38 1726.34,1225.58C1730.1,1221.78 1733.06,1216.54 1735.22,1209.86C1737.41,1203.1 1738.5,1195.43 1738.51,1186.87C1738.52,1178.53 1737.45,1171.08 1735.26,1164.55C1733.08,1158.05 1730.13,1152.9 1726.4,1149.11C1722.66,1145.32 1718.39,1143.45 1713.59,1143.43C1708.83,1143.42 1704.55,1145.27 1700.76,1149.03C1696.98,1152.79 1694,1157.91 1691.84,1164.38C1689.66,1170.9 1688.58,1178.4 1688.57,1186.84C1688.56,1195.39 1689.62,1203.04 1691.8,1209.77C1693.95,1216.42 1696.9,1221.66 1700.68,1225.48C1704.46,1229.32 1708.73,1231.22 1713.48,1231.23ZM1827.58,1251.97L1827.81,1058.43C1827.82,1055.88 1829.04,1053.82 1830.55,1053.82L1841.93,1053.86C1843.44,1053.87 1844.66,1055.94 1844.66,1058.49L1844.42,1252.03C1844.42,1254.58 1843.19,1256.64 1841.69,1256.64L1830.3,1256.6C1828.79,1256.59 1827.57,1254.52 1827.58,1251.97ZM1958.53,1259.78C1950.64,1259.75 1943.52,1256.51 1937.16,1250.11C1930.82,1243.71 1925.78,1235.05 1922.06,1224.14C1918.33,1213.23 1916.47,1201.06 1916.48,1187.63C1916.5,1174.28 1918.4,1162.25 1922.15,1151.54C1925.91,1140.85 1930.96,1132.35 1937.32,1126.04C1943.69,1119.73 1950.82,1116.57 1958.71,1116.59C1966.59,1116.62 1973.71,1119.81 1980.06,1126.11C1986.41,1132.42 1991.45,1140.96 1995.17,1151.73C1998.9,1162.51 2000.77,1174.57 2000.76,1187.92C2000.74,1201.45 1998.84,1213.63 1995.09,1224.47C1991.34,1235.31 1986.28,1243.9 1979.92,1250.26C1973.55,1256.62 1966.42,1259.81 1958.53,1259.78ZM1958.57,1232.09C1963.37,1232.1 1967.66,1230.24 1971.42,1226.43C1975.18,1222.63 1978.14,1217.39 1980.3,1210.72C1982.49,1203.95 1983.58,1196.29 1983.59,1187.73C1983.6,1179.38 1982.53,1171.93 1980.34,1165.4C1978.16,1158.9 1975.21,1153.76 1971.48,1149.96C1967.75,1146.17 1963.48,1144.3 1958.67,1144.29C1953.91,1144.27 1949.63,1146.12 1945.84,1149.89C1942.06,1153.65 1939.08,1158.76 1936.92,1165.23C1934.74,1171.76 1933.66,1179.25 1933.65,1187.69C1933.64,1196.24 1934.7,1203.89 1936.88,1210.62C1939.03,1217.27 1941.99,1222.51 1945.76,1226.34C1949.54,1230.17 1953.81,1232.07 1958.57,1232.09ZM2226.33,1253.36L2226.49,1124.88C2226.49,1122.33 2227.71,1120.26 2229.22,1120.27L2240.61,1120.31C2242.12,1120.31 2243.34,1122.39 2243.33,1124.94L2243.18,1253.42C2243.17,1255.97 2241.95,1258.03 2240.44,1258.03L2229.05,1257.99C2227.55,1257.98 2226.33,1255.91 2226.33,1253.36ZM2234.9,1101.78C2231.9,1101.77 2229.4,1099.95 2227.39,1096.35C2225.42,1092.82 2224.43,1088.58 2224.44,1083.6C2224.44,1078.47 2225.47,1074.21 2227.45,1070.8C2229.46,1067.36 2231.95,1065.61 2234.94,1065.62C2238.05,1065.63 2240.59,1067.42 2242.58,1070.85C2244.55,1074.28 2245.57,1078.54 2245.56,1083.67C2245.56,1088.65 2244.55,1092.89 2242.58,1096.41C2240.57,1099.97 2238.02,1101.8 2234.9,1101.78ZM2332.92,1201.22C2333.46,1205.3 2334.28,1209.09 2335.4,1212.58C2337.53,1219.28 2340.55,1224.49 2344.45,1228.21C2348.42,1232.01 2353.04,1233.87 2358.29,1233.89C2362.47,1233.9 2366.34,1232.64 2369.89,1230.07C2373.36,1227.55 2376.31,1223.81 2378.72,1218.84C2379.22,1217.83 2379.94,1217.22 2380.71,1217.16C2381.48,1217.1 2382.23,1217.6 2382.78,1218.53L2390.11,1231.13C2391.1,1232.84 2391.16,1235.55 2390.24,1237.37C2386.41,1245 2381.68,1250.89 2376.03,1255.04C2370.43,1259.14 2364.43,1261.19 2358.01,1261.17C2349.91,1261.14 2342.66,1257.98 2336.24,1251.74C2329.79,1245.48 2324.7,1236.9 2320.97,1226.01C2317.25,1215.15 2315.38,1202.91 2315.4,1189.29C2315.41,1175.77 2317.27,1163.65 2320.93,1152.91C2324.6,1142.14 2329.61,1133.63 2335.96,1127.36C2342.3,1121.09 2349.38,1117.95 2357.22,1117.98C2364.69,1118.01 2371.28,1120.93 2377.01,1126.69C2382.75,1132.46 2387.27,1140.42 2390.54,1150.57C2393.78,1160.61 2395.41,1172.1 2395.39,1185.06C2395.39,1186.64 2395.34,1188.48 2395.22,1190.56C2395.1,1192.58 2394.9,1194.93 2394.61,1197.62C2394.38,1199.83 2393.24,1201.43 2391.92,1201.42L2332.92,1201.22ZM2333.01,1175.71L2378.57,1175.87C2378.17,1171.56 2377.46,1167.63 2376.43,1164.08C2374.69,1158.06 2372.19,1153.38 2368.93,1150.04C2365.61,1146.65 2361.61,1145.01 2356.94,1144.99C2351.97,1144.97 2347.62,1146.75 2343.89,1150.4C2340.21,1154.01 2337.35,1159.03 2335.3,1165.44C2334.29,1168.6 2333.53,1172.02 2333.01,1175.71ZM2492.79,1261.64C2488.36,1261.63 2484.16,1260.58 2480.17,1258.53C2476.16,1256.47 2472.52,1253.57 2469.24,1249.85C2465.95,1246.12 2463.07,1241.71 2460.59,1236.62C2459.7,1234.79 2459.77,1232.11 2460.76,1230.42L2468.13,1217.88C2468.67,1216.94 2469.43,1216.45 2470.2,1216.52C2470.98,1216.59 2471.7,1217.21 2472.19,1218.23C2474.86,1223.85 2477.93,1228.05 2481.41,1230.78C2484.91,1233.53 2488.8,1234.89 2493.06,1234.9C2497.46,1234.92 2500.93,1233.68 2503.42,1230.87C2505.47,1228.56 2506.49,1225.31 2506.5,1221.12C2506.5,1217.13 2505.85,1213.95 2504.38,1211.69C2502.61,1208.96 2500.31,1206.81 2497.5,1205.16C2494.34,1203.31 2491.01,1201.52 2487.5,1199.8C2483.8,1197.98 2480.28,1195.68 2476.94,1192.92C2473.32,1189.92 2470.38,1185.76 2468.11,1180.45C2465.8,1175.06 2464.57,1167.95 2464.58,1159.06C2464.59,1150.78 2465.84,1143.6 2468.26,1137.5C2470.66,1131.45 2474.05,1126.7 2478.46,1123.33C2482.68,1120.09 2487.7,1118.44 2493.53,1118.46C2499.7,1118.48 2505.24,1120.38 2510.17,1124.11C2515.23,1127.93 2519.32,1133.56 2522.45,1140.99C2523.22,1142.83 2523.1,1145.35 2522.15,1146.95L2514.79,1159.36C2514.23,1160.3 2513.45,1160.79 2512.67,1160.69C2511.88,1160.6 2511.16,1159.93 2510.68,1158.87C2508.75,1154.54 2506.29,1151.19 2503.31,1148.82C2500.27,1146.4 2496.83,1145.2 2493.01,1145.19C2488.94,1145.18 2485.8,1146.33 2483.65,1149.03C2481.87,1151.27 2480.95,1154.16 2480.95,1157.75C2480.94,1161.22 2481.58,1163.99 2482.97,1165.95C2484.75,1168.45 2487.07,1170.43 2489.89,1171.97C2493.07,1173.7 2496.42,1175.43 2499.94,1177.16C2503.67,1178.99 2507.22,1181.39 2510.57,1184.37C2514.17,1187.56 2517.1,1191.88 2519.36,1197.31C2521.65,1202.82 2522.87,1210.16 2522.86,1219.4C2522.85,1232.49 2520.01,1242.84 2514.43,1250.5C2509.06,1257.86 2501.86,1261.67 2492.79,1261.64ZM2421.71,894.39C2422.18,893.543 2422.18,892.212 2421.71,891.366L2385.07,826.287C2378.13,813.971 2378.39,794.41 2385.64,782.632C2392.89,770.859 2404.4,771.296 2411.33,783.607L2448.86,850.256C2449.1,850.687 2449.44,850.932 2449.79,850.934C2450.14,850.937 2450.47,850.697 2450.72,850.27L2489.03,783.412C2496.03,771.204 2507.54,770.939 2514.73,782.82C2521.92,794.706 2522.07,814.27 2515.08,826.482L2477.87,891.406C2477.39,892.256 2477.39,893.609 2477.87,894.459L2515.08,959.331C2522.07,971.543 2521.92,991.107 2514.73,1002.99C2507.54,1014.87 2496.03,1014.61 2489.03,1002.4L2450.72,935.542C2450.47,935.115 2450.14,934.876 2449.79,934.878C2449.44,934.881 2449.1,935.126 2448.86,935.556L2411.33,1002.21C2404.4,1014.52 2392.89,1014.95 2385.64,1003.18C2378.39,991.402 2378.13,971.841 2385.07,959.525L2421.71,894.39ZM1220.61,1011.73C1206.79,1011.73 1194.24,1006.09 1182.99,994.806C1171.73,983.521 1162.79,968.279 1156.18,949.078C1149.56,929.878 1146.25,908.488 1146.25,884.909C1146.25,861.329 1149.56,840.108 1156.18,821.244C1162.79,802.381 1171.73,787.307 1182.99,776.022C1194.24,764.738 1206.79,759.095 1220.61,759.095C1234.63,759.095 1247.27,764.653 1258.53,775.769C1269.79,786.885 1278.72,801.959 1285.34,820.991C1291.96,840.023 1295.26,861.329 1295.26,884.909C1295.26,908.488 1291.96,929.878 1285.34,949.078C1278.72,968.279 1269.79,983.521 1258.53,994.806C1247.27,1006.09 1234.63,1011.73 1220.61,1011.73ZM1220.61,958.173C1228.71,958.173 1235.87,955.058 1242.09,948.826C1248.31,942.594 1253.15,933.92 1256.6,922.804C1260.06,911.688 1261.79,899.056 1261.79,884.909C1261.79,870.761 1260.01,858.298 1256.46,847.518C1252.9,836.739 1248.06,828.234 1241.94,822.002C1235.82,815.77 1228.71,812.654 1220.61,812.654C1212.71,812.654 1205.65,815.77 1199.43,822.002C1193.21,828.234 1188.37,836.739 1184.91,847.518C1181.46,858.298 1179.73,870.761 1179.73,884.909C1179.73,899.056 1181.46,911.688 1184.91,922.804C1188.37,933.92 1193.21,942.594 1199.43,948.826C1205.65,955.058 1212.71,958.173 1220.61,958.173ZM1385.32,1011.73C1373.35,1011.73 1362.65,1007.19 1353.23,998.09C1343.82,988.995 1336.49,976.474 1331.25,960.526C1326.02,944.578 1323.4,926.089 1323.4,905.056L1323.4,764.148L1355.99,764.148L1355.99,902.593C1355.99,914.383 1357.13,924.404 1359.4,932.657C1361.67,940.91 1365.03,947.226 1369.47,951.605C1373.91,955.984 1379.23,958.173 1385.42,958.173C1394.83,958.173 1402.06,953.373 1407.09,943.773C1412.13,934.173 1414.65,920.446 1414.65,902.593L1414.65,764.148L1447.24,764.148L1447.24,905.12C1447.24,926.341 1444.62,944.952 1439.38,960.952C1434.15,976.953 1426.88,989.416 1417.57,998.343C1408.26,1007.27 1397.51,1011.73 1385.32,1011.73ZM1507.96,980.161L1507.96,1006.68L1475.37,1006.68L1475.37,642.882L1507.96,642.882L1507.96,791.116C1512.08,783.047 1517.02,776.332 1522.77,770.969C1531.27,763.053 1540.85,759.095 1551.51,759.095C1564.35,759.095 1575.95,764.738 1586.32,776.022C1596.69,787.307 1604.88,802.465 1610.91,821.497C1616.93,840.529 1619.94,862.003 1619.94,885.919C1619.94,909.499 1616.93,930.804 1610.91,949.836C1604.88,968.868 1596.69,983.942 1586.32,995.058C1575.95,1006.17 1564.35,1011.73 1551.51,1011.73C1540.65,1011.73 1530.97,1007.77 1522.48,999.859C1516.83,994.596 1511.99,988.03 1507.96,980.161ZM1546.18,959.184C1554.08,959.184 1561.04,956.068 1567.06,949.836C1573.09,943.605 1577.83,934.931 1581.28,923.815C1584.74,912.699 1586.47,899.898 1586.47,885.414C1586.47,870.929 1584.74,858.129 1581.28,847.013C1577.83,835.897 1573.09,827.223 1567.06,820.991C1561.04,814.76 1554.08,811.644 1546.18,811.644C1538.28,811.644 1531.27,814.76 1525.14,820.991C1519.02,827.223 1514.28,835.897 1510.92,847.013C1507.57,858.129 1505.89,870.929 1505.89,885.414C1505.89,899.898 1507.57,912.699 1510.92,923.815C1514.28,934.931 1519.02,943.605 1525.14,949.836C1531.27,956.068 1538.28,959.184 1546.18,959.184ZM1648.08,1011.73L1648.08,647.935L1680.67,647.935L1680.67,1011.73L1648.08,1011.73ZM1739.67,906.13C1740.55,912.448 1741.85,918.343 1743.55,923.815C1747.1,935.268 1752.14,944.11 1758.65,950.342C1765.17,956.573 1772.68,959.689 1781.17,959.689C1788.48,959.689 1795.24,957.5 1801.46,953.121C1807.68,948.742 1812.97,942.341 1817.31,933.92L1838.05,969.795C1831.13,983.606 1822.74,994.048 1812.87,1001.12C1802.99,1008.2 1792.52,1011.73 1781.46,1011.73C1767.25,1011.73 1754.46,1006.26 1743.1,995.311C1731.74,984.363 1722.76,969.289 1716.14,950.089C1709.53,930.889 1706.22,909.33 1706.22,885.414C1706.22,861.498 1709.48,840.023 1715.99,820.991C1722.51,801.959 1731.35,786.885 1742.51,775.769C1753.67,764.653 1766.06,759.095 1779.69,759.095C1792.92,759.095 1804.62,764.317 1814.79,774.759C1824.96,785.201 1832.96,799.517 1838.79,817.707C1844.61,835.897 1847.53,856.613 1847.53,879.856C1847.53,883.898 1847.38,888.025 1847.08,892.235C1846.79,896.446 1846.34,901.077 1845.75,906.13L1739.67,906.13ZM1739.76,860.656L1815.45,860.656C1814.6,853.516 1813.34,847.115 1811.68,841.455C1808.72,831.35 1804.52,823.602 1799.09,818.212C1793.66,812.823 1786.99,810.128 1779.09,810.128C1770.8,810.128 1763.59,813.16 1757.47,819.223C1751.35,825.286 1746.61,833.792 1743.25,844.739C1741.75,849.625 1740.59,854.931 1739.76,860.656ZM1967.02,872.186L1967.02,1011.73L1934.53,1011.73L1934.53,649.012L1967.02,649.012L1967.02,797.132C1970.92,789.215 1975.59,782.579 1981.02,777.223C1989.37,768.995 1998.82,764.881 2009.38,764.881C2019.93,764.881 2029.35,768.911 2037.62,776.971C2045.89,785.032 2052.39,796.199 2057.11,810.473C2061.84,824.746 2064.2,841.287 2064.2,860.095L2064.2,1011.73L2031.71,1011.73L2031.71,872.186C2031.71,856.065 2028.71,842.799 2022.7,832.387C2016.69,821.976 2008.99,816.77 1999.59,816.77C1993.19,816.77 1987.54,819.121 1982.64,823.823C1977.74,828.525 1973.91,835.074 1971.16,843.47C1968.4,851.867 1967.02,861.438 1967.02,872.186ZM2123.56,906.443C2124.45,912.742 2125.74,918.619 2127.43,924.075C2130.97,935.494 2135.99,944.31 2142.49,950.523C2148.99,956.737 2156.47,959.843 2164.94,959.843C2172.23,959.843 2178.97,957.66 2185.17,953.294C2191.38,948.928 2196.64,942.547 2200.98,934.15L2221.65,969.919C2214.76,983.689 2206.39,994.1 2196.55,1001.15C2186.7,1008.21 2176.26,1011.73 2165.24,1011.73C2151.06,1011.73 2138.31,1006.27 2126.99,995.36C2115.66,984.444 2106.7,969.415 2100.11,950.271C2093.51,931.128 2090.21,909.633 2090.21,885.788C2090.21,861.942 2093.46,840.532 2099.96,821.556C2106.46,802.58 2115.27,787.551 2126.39,776.468C2137.52,765.384 2149.88,759.843 2163.46,759.843C2176.66,759.843 2188.32,765.049 2198.47,775.46C2208.61,785.872 2216.58,800.145 2222.39,818.281C2228.2,836.417 2231.1,857.072 2231.1,880.246C2231.1,884.276 2230.96,888.391 2230.66,892.589C2230.37,896.787 2229.92,901.405 2229.33,906.443L2123.56,906.443ZM2123.65,861.103L2199.12,861.103C2198.27,853.984 2197.02,847.603 2195.36,841.959C2192.41,831.883 2188.23,824.159 2182.81,818.785C2177.39,813.411 2170.75,810.725 2162.87,810.725C2154.6,810.725 2147.41,813.747 2141.31,819.793C2135.21,825.838 2130.48,834.318 2127.13,845.233C2125.64,850.105 2124.48,855.395 2123.65,861.103ZM2257.12,1011.73L2257.12,649.012L2289.61,649.012L2289.61,1011.73L2257.12,1011.73ZM2318.57,1011.73L2318.57,769.918L2351.06,769.918L2351.06,1011.73L2318.57,1011.73ZM2334.82,725.586C2329.3,725.586 2324.73,722.395 2321.08,716.014C2317.44,709.633 2315.62,701.74 2315.62,692.337C2315.62,682.933 2317.44,675.04 2321.08,668.659C2324.73,662.278 2329.3,659.087 2334.82,659.087C2340.53,659.087 2345.16,662.278 2348.7,668.659C2352.24,675.04 2354.02,682.933 2354.02,692.337C2354.02,701.74 2352.24,709.633 2348.7,716.014C2345.16,722.395 2340.53,725.586 2334.82,725.586ZM1086.17,980.161C1082.14,988.03 1077.3,994.596 1071.66,999.859C1063.16,1007.77 1053.49,1011.73 1042.62,1011.73C1029.79,1011.73 1018.19,1006.18 1007.83,995.07C997.474,983.962 989.278,968.888 983.243,949.848C977.209,930.808 974.192,909.462 974.192,885.809C974.192,861.813 977.203,840.338 983.227,821.382C989.251,802.427 997.428,787.307 1007.76,776.022C1018.09,764.738 1029.71,759.095 1042.62,759.095C1053.49,759.095 1063.12,763.053 1071.51,770.969C1077.19,776.325 1082.08,783.031 1086.17,791.085L1086.17,642.882L1118.76,642.882L1118.76,1006.68L1086.17,1006.68L1086.17,980.161ZM1047.96,959.184C1056.05,959.184 1063.1,956.04 1069.1,949.753C1075.11,943.467 1079.8,934.793 1083.18,923.732C1086.56,912.671 1088.25,899.898 1088.25,885.414C1088.25,870.798 1086.55,857.98 1083.15,846.962C1079.75,835.943 1075.06,827.302 1069.08,821.039C1063.09,814.776 1056.1,811.644 1048.11,811.644C1040.11,811.644 1033.1,814.79 1027.1,821.082C1021.09,827.375 1016.35,836.056 1012.88,847.128C1009.4,858.199 1007.67,870.961 1007.67,885.414C1007.67,899.898 1009.39,912.692 1012.83,923.795C1016.27,934.898 1021.03,943.572 1027.12,949.817C1033.2,956.062 1040.15,959.184 1047.96,959.184ZM702.369,1296.9L736.457,1356.13C743.434,1368.25 743.279,1387.68 736.11,1399.48C728.943,1411.27 717.46,1411.01 710.484,1398.89L675.367,1337.87L640.971,1398.69C634.058,1410.92 622.577,1411.35 615.348,1399.66C608.119,1387.97 607.863,1368.55 614.776,1356.32L648.351,1296.95C634.017,1277.36 613.183,1247.08 598.269,1217.74C584.622,1190.89 576.421,1163.28 576.403,1143.07C576.385,1122.86 584.537,1095.21 598.137,1068.29C622.972,1019.14 664.346,967.286 664.346,967.286C670.732,959.304 679.448,959.283 685.847,967.233C685.847,967.233 727.312,1018.89 752.235,1067.92C765.882,1094.77 774.083,1122.38 774.101,1142.59C774.119,1162.8 765.967,1190.45 752.367,1217.37C737.485,1246.82 716.669,1277.24 702.369,1296.9ZM675.353,1255.06C688.195,1237.82 709.837,1207.18 724.813,1177.54C729.043,1169.17 732.716,1160.95 735.282,1153.2C736.588,1149.25 737.858,1145.88 737.855,1142.68C737.852,1139.48 736.576,1136.12 735.263,1132.18C732.683,1124.43 728.995,1116.24 724.75,1107.88C709.721,1078.32 688.024,1047.78 675.151,1030.6C662.309,1047.84 640.667,1078.48 625.691,1108.12C621.461,1116.49 617.788,1124.71 615.222,1132.46C613.916,1136.41 612.646,1139.78 612.649,1142.98C612.652,1146.18 613.928,1149.54 615.241,1153.48C617.821,1161.23 621.509,1169.42 625.754,1177.77C640.783,1207.34 662.48,1237.88 675.353,1255.06ZM448.103,916.551C448.103,916.551 477.994,846.476 506.34,804.384C521.992,781.141 538.145,767.277 549.914,767.277C561.683,767.277 577.836,781.141 593.488,804.384C621.834,846.476 651.725,916.551 651.725,916.551C656.273,927.245 656.273,941.658 651.725,952.351C651.725,952.351 621.834,1022.43 593.488,1064.52C577.836,1087.76 561.683,1101.63 549.914,1101.63C538.145,1101.63 521.992,1087.76 506.34,1064.52C477.994,1022.43 448.103,952.351 448.103,952.351C443.555,941.658 443.555,927.245 448.103,916.551ZM485.469,934.451C495.375,956.151 513.103,992.984 530.254,1018.45C535.057,1025.59 539.769,1031.78 544.22,1036.11C546.368,1038.2 548.171,1040.32 549.914,1040.32C551.657,1040.32 553.459,1038.2 555.608,1036.11C560.059,1031.78 564.771,1025.59 569.574,1018.45C586.725,992.984 604.453,956.152 614.359,934.451C604.453,912.751 586.725,875.919 569.574,850.45C564.771,843.318 560.059,837.121 555.608,832.791C553.459,830.7 551.657,828.579 549.914,828.579C548.171,828.579 546.368,830.7 544.22,832.791C539.769,837.121 535.057,843.318 530.254,850.45C513.103,875.919 495.375,912.751 485.469,934.451ZM664.501,901.643C664.501,901.643 623.082,849.884 598.203,800.796C584.579,773.915 576.403,746.285 576.403,726.073C576.403,705.862 584.579,678.231 598.203,651.351C623.082,602.263 664.501,550.504 664.501,550.504C670.894,542.537 679.61,542.537 686.003,550.504C686.003,550.504 727.422,602.263 752.301,651.351C765.925,678.231 774.101,705.862 774.101,726.073C774.101,746.285 765.925,773.915 752.301,800.796C727.422,849.884 686.003,901.643 686.003,901.643C679.61,909.61 670.894,909.61 664.501,901.643ZM675.252,838.308C688.109,821.097 709.779,790.502 724.782,760.9C729.019,752.539 732.7,744.332 735.273,736.585C736.582,732.64 737.855,729.274 737.855,726.073C737.855,722.873 736.582,719.507 735.273,715.562C732.7,707.815 729.019,699.608 724.782,691.247C709.779,661.645 688.11,631.05 675.252,613.839C662.394,631.05 640.725,661.645 625.722,691.247C621.485,699.608 617.804,707.815 615.231,715.562C613.922,719.507 612.649,722.873 612.649,726.073C612.649,729.274 613.922,732.64 615.231,736.585C617.804,744.332 621.485,752.539 625.722,760.9C640.725,790.502 662.394,821.097 675.252,838.308ZM902.401,952.351C902.401,952.351 872.51,1022.43 844.164,1064.52C828.512,1087.76 812.359,1101.63 800.59,1101.63C788.821,1101.63 772.668,1087.76 757.016,1064.52C728.67,1022.43 698.779,952.351 698.779,952.351C694.231,941.658 694.231,927.245 698.779,916.551C698.779,916.551 728.67,846.476 757.016,804.384C772.668,781.141 788.821,767.277 800.59,767.277C812.359,767.277 828.512,781.141 844.164,804.384C872.51,846.476 902.401,916.551 902.401,916.551C906.949,927.245 906.949,941.658 902.401,952.351ZM865.035,934.451C855.129,912.751 837.401,875.919 820.25,850.45C815.447,843.318 810.735,837.121 806.284,832.791C804.136,830.7 802.333,828.579 800.59,828.579C798.847,828.579 797.044,830.7 794.896,832.791C790.445,837.121 785.733,843.318 780.93,850.45C763.779,875.919 746.051,912.751 736.145,934.452C746.051,956.152 763.779,992.984 780.93,1018.45C785.733,1025.59 790.445,1031.78 794.896,1036.11C797.044,1038.2 798.847,1040.32 800.59,1040.32C802.333,1040.32 804.136,1038.2 806.284,1036.11C810.735,1031.78 815.447,1025.59 820.25,1018.45C837.401,992.984 855.129,956.151 865.035,934.451Z" style="fill:white;"/>
        </g>
    </g>
</svg>
