<?xml version="1.0" encoding="UTF-8" standalone="no"?>
<!DOCTYPE svg PUBLIC "-//W3C//DTD SVG 1.1//EN" "http://www.w3.org/Graphics/SVG/1.1/DTD/svg11.dtd">
<svg width="100%" height="100%" viewBox="0 0 315 78" version="1.1" xmlns="http://www.w3.org/2000/svg" xmlns:xlink="http://www.w3.org/1999/xlink" xml:space="preserve" xmlns:serif="http://www.serif.com/" style="fill-rule:evenodd;clip-rule:evenodd;stroke-linejoin:round;stroke-miterlimit:2;">
    <g transform="matrix(1,0,0,1,-1778.57,-14820.3)">
        <g transform="matrix(0.151595,0,0,0.0895643,1711.16,14771.6)">
            <g transform="matrix(0.670135,0,0,0.535287,832.714,402.49)">
                <g transform="matrix(0.977725,0.00426434,-0.00259152,2.6679,-19782.5,-42464.8)">
                    <path d="M20521.9,16399.1L20492.7,16399.1L20492.7,16387L20521.9,16387L20521.9,16349.1L20539.3,16349.1L20539.3,16387L20568.4,16387L20568.4,16399.1L20539.3,16399.1L20539.3,16476.9L20521.9,16476.9L20521.9,16399.1ZM20693,16436.9C20693.7,16441.6 20695.4,16445.9 20698.1,16449.7C20701.7,16454.9 20706.9,16459 20713.5,16461.9C20720.2,16464.8 20727.9,16466.2 20736.7,16466.2C20743.7,16466.2 20750.1,16465.2 20756.1,16463.2C20762,16461.3 20767,16458.3 20771.1,16454.4L20782.3,16463.2C20776.9,16468.2 20770.2,16472.1 20762.2,16474.8C20754.1,16477.5 20745.5,16478.8 20736.3,16478.8C20724.8,16478.8 20714.4,16476.8 20705.2,16472.7C20696,16468.6 20688.7,16463 20683.3,16455.9C20678,16448.8 20675.3,16440.8 20675.3,16431.9C20675.3,16423 20677.9,16415 20683.2,16408C20688.4,16400.9 20695.5,16395.3 20704.5,16391.2C20713.6,16387.1 20723.7,16385.1 20734.9,16385.1C20745.5,16385.1 20754.8,16386.9 20763,16390.7C20771.1,16394.4 20777.5,16399.5 20782.1,16406.1C20786.8,16412.7 20789.1,16420.2 20789.1,16428.7C20789.1,16429.7 20789,16430.9 20788.8,16432.2C20788.7,16433.6 20788.4,16435.1 20788,16436.9L20693,16436.9ZM20693,16425.5L20772.2,16425.5C20771.8,16420.7 20770.4,16416.4 20768,16412.6C20765,16407.8 20760.6,16404.1 20754.9,16401.5C20749.3,16398.8 20742.5,16397.5 20734.5,16397.5C20726.1,16397.5 20718.8,16398.9 20712.5,16401.8C20706.2,16404.6 20701.3,16408.5 20697.8,16413.6C20695.4,16417.1 20693.8,16421.1 20693,16425.5ZM20959.2,16478.8C20947.8,16478.8 20937.6,16476.8 20928.5,16472.6C20919.4,16468.5 20912.1,16462.8 20906.8,16455.7C20901.5,16448.5 20898.9,16440.6 20898.9,16431.8C20898.9,16423 20901.5,16415 20906.8,16408C20912.1,16400.9 20919.4,16395.3 20928.5,16391.2C20937.6,16387.1 20947.8,16385.1 20959.2,16385.1C20967.9,16385.1 20976,16386.3 20983.6,16388.9C20991.1,16391.4 20997.6,16395 21002.9,16399.7L20991.5,16408.7C20987.5,16405.2 20982.8,16402.6 20977.2,16400.7C20971.7,16398.9 20965.7,16398 20959.2,16398C20951,16398 20943.8,16399.4 20937.4,16402.4C20930.9,16405.3 20925.9,16409.3 20922.3,16414.3C20918.6,16419.4 20916.8,16425.2 20916.8,16431.8C20916.8,16438.3 20918.6,16444.2 20922.3,16449.3C20925.9,16454.5 20930.9,16458.5 20937.4,16461.5C20943.8,16464.4 20951,16465.9 20959.2,16465.9C20965.7,16465.9 20971.8,16465 20977.4,16463.1C20983,16461.3 20987.8,16458.6 20991.8,16455.1L21003.3,16464.1C20997.9,16468.8 20991.3,16472.5 20983.7,16475C20976.1,16477.6 20967.9,16478.8 20959.2,16478.8ZM21135.8,16424L21135.8,16476.9L21118.4,16476.9L21118.4,16341.4L21135.8,16341.4L21135.8,16400.2C21139.6,16395.8 21144.6,16392.4 21150.7,16389.7C21157.7,16386.6 21165.7,16385.1 21174.7,16385.1C21183.6,16385.1 21191.5,16386.6 21198.3,16389.7C21205.2,16392.9 21210.5,16397.2 21214.4,16402.7C21218.3,16408.2 21220.2,16414.6 21220.2,16421.8L21220.2,16476.9L21202.8,16476.9L21202.8,16424.1C21202.8,16416.3 21199.8,16409.9 21193.8,16405C21187.7,16400 21179.8,16397.6 21169.9,16397.6C21163.3,16397.6 21157.3,16398.7 21152.2,16401C21147.1,16403.3 21143.1,16406.4 21140.2,16410.3C21137.2,16414.3 21135.8,16418.8 21135.8,16424ZM21360.8,16424L21360.8,16476.9L21343.4,16476.9L21343.4,16387L21360.8,16387L21360.8,16400.2C21364.7,16395.8 21369.7,16392.4 21375.7,16389.7C21382.8,16386.6 21390.8,16385.1 21399.7,16385.1C21408.6,16385.1 21416.5,16386.7 21423.4,16390.1C21430.2,16393.4 21435.6,16397.9 21439.5,16403.5C21443.3,16409.1 21445.2,16415.2 21445.2,16421.8L21445.2,16476.9L21427.9,16476.9L21427.9,16424.1C21427.9,16416.3 21424.9,16409.9 21418.8,16405C21412.8,16400 21404.8,16397.6 21395,16397.6C21388.3,16397.6 21382.4,16398.7 21377.3,16401C21372.1,16403.3 21368.1,16406.4 21365.2,16410.3C21362.3,16414.3 21360.8,16418.8 21360.8,16424ZM21621.1,16478.8C21609.9,16478.8 21599.7,16476.8 21590.6,16472.6C21581.5,16468.4 21574.3,16462.7 21569,16455.6C21563.6,16448.4 21561,16440.5 21561,16431.7C21561,16422.9 21563.6,16415 21569,16408C21574.3,16401 21581.5,16395.4 21590.6,16391.3C21599.7,16387.1 21609.9,16385.1 21621.1,16385.1C21632.4,16385.1 21642.5,16387.1 21651.6,16391.2C21660.7,16395.3 21667.9,16400.9 21673.3,16408C21678.6,16415 21681.3,16422.9 21681.3,16431.7C21681.3,16440.5 21678.6,16448.5 21673.3,16455.6C21667.9,16462.8 21660.7,16468.4 21651.6,16472.6C21642.5,16476.8 21632.4,16478.8 21621.1,16478.8ZM21621.1,16465.9C21629.3,16465.9 21636.5,16464.4 21642.9,16461.5C21649.2,16458.5 21654.3,16454.4 21657.9,16449.2C21661.6,16444 21663.4,16438.1 21663.4,16431.6C21663.4,16425.1 21661.5,16419.4 21657.8,16414.3C21654.2,16409.3 21649.1,16405.3 21642.8,16402.4C21636.5,16399.4 21629.3,16398 21621.1,16398C21613.1,16398 21605.8,16399.4 21599.4,16402.4C21593,16405.3 21588,16409.3 21584.3,16414.3C21580.7,16419.4 21578.8,16425.2 21578.8,16431.7C21578.8,16438.2 21580.7,16444.1 21584.3,16449.3C21588,16454.4 21593,16458.5 21599.4,16461.5C21605.8,16464.4 21613.1,16465.9 21621.1,16465.9ZM21799.5,16476.9L21799.5,16341.4L21816.8,16341.4L21816.8,16476.9L21799.5,16476.9ZM21995.2,16478.8C21983.9,16478.8 21973.7,16476.8 21964.7,16472.6C21955.6,16468.4 21948.4,16462.7 21943,16455.6C21937.7,16448.4 21935,16440.5 21935,16431.7C21935,16422.9 21937.7,16415 21943,16408C21948.4,16401 21955.6,16395.4 21964.7,16391.3C21973.7,16387.1 21983.9,16385.1 21995.2,16385.1C22006.4,16385.1 22016.6,16387.1 22025.7,16391.2C22034.8,16395.3 22042,16400.9 22047.3,16408C22052.6,16415 22055.3,16422.9 22055.3,16431.7C22055.3,16440.5 22052.6,16448.5 22047.3,16455.6C22042,16462.8 22034.8,16468.4 22025.7,16472.6C22016.6,16476.8 22006.4,16478.8 21995.2,16478.8ZM21995.2,16465.9C22003.3,16465.9 22010.6,16464.4 22016.9,16461.5C22023.3,16458.5 22028.3,16454.4 22032,16449.2C22035.6,16444 22037.4,16438.1 22037.4,16431.6C22037.4,16425.1 22035.6,16419.4 22031.9,16414.3C22028.2,16409.3 22023.2,16405.3 22016.9,16402.4C22010.5,16399.4 22003.3,16398 21995.2,16398C21987.1,16398 21979.9,16399.4 21973.5,16402.4C21967.1,16405.3 21962,16409.3 21958.4,16414.3C21954.7,16419.4 21952.9,16425.2 21952.9,16431.7C21952.9,16438.2 21954.7,16444.1 21958.4,16449.3C21962,16454.4 21967.1,16458.5 21973.5,16461.5C21979.9,16464.4 21987.1,16465.9 21995.2,16465.9ZM22265,16459C22264.6,16459.5 22264.2,16460 22263.7,16460.5C22259.3,16465.4 22253.6,16469.2 22246.5,16471.9C22239.5,16474.6 22231.6,16476 22222.7,16476C22211.9,16476 22202.3,16474 22193.7,16470C22185.2,16466.1 22178.4,16460.7 22173.5,16453.8C22168.6,16446.9 22166.1,16439.1 22166.1,16430.4C22166.1,16421.8 22168.6,16414.1 22173.4,16407.3C22178.3,16400.4 22185.1,16395 22193.6,16391C22202.1,16387 22211.8,16385.1 22222.4,16385.1C22231.5,16385.1 22239.5,16386.4 22246.7,16389.1C22253.8,16391.8 22259.5,16395.6 22263.9,16400.5C22264.3,16400.9 22264.6,16401.3 22265,16401.7L22265,16387L22282.3,16387L22282.3,16473.4C22282.3,16482.1 22279.8,16489.6 22274.7,16496.1C22269.6,16502.6 22262.5,16507.7 22253.3,16511.3C22244.2,16514.9 22233.5,16516.7 22221.5,16516.7C22209.8,16516.7 22199.4,16515.1 22190.3,16511.7C22181.2,16508.4 22173.8,16503.6 22168.2,16497.4L22179.4,16488.7C22184,16493.5 22189.9,16497.2 22196.9,16499.9C22204,16502.6 22212.3,16503.9 22221.8,16503.9C22235,16503.9 22245.5,16501.2 22253.3,16495.7C22261.1,16490.2 22265,16482.8 22265,16473.4L22265,16459ZM22225.9,16463.2C22233.9,16463.2 22240.9,16461.9 22246.9,16459.2C22252.9,16456.5 22257.6,16452.7 22261,16447.7C22264.3,16442.8 22265.9,16437.1 22265.9,16430.5C22265.9,16424 22264.3,16418.3 22260.9,16413.4C22257.5,16408.5 22252.8,16404.7 22246.8,16401.9C22240.7,16399.2 22233.7,16397.8 22225.6,16397.8C22217.5,16397.8 22210.3,16399.2 22204,16401.9C22197.7,16404.7 22192.8,16408.5 22189.3,16413.4C22185.8,16418.3 22184,16424 22184,16430.4C22184,16436.8 22185.8,16442.5 22189.3,16447.5C22192.9,16452.4 22197.9,16456.3 22204.1,16459.1C22210.4,16461.9 22217.7,16463.2 22225.9,16463.2ZM22408,16476.9L22408,16387L22425.4,16387L22425.4,16476.9L22408,16476.9ZM22416.7,16367.5C22413.3,16367.5 22410.5,16366.6 22408.2,16364.8C22406,16362.9 22404.8,16360.7 22404.8,16358.1C22404.8,16355.4 22406,16353.1 22408.2,16351.4C22410.5,16349.6 22413.3,16348.7 22416.7,16348.7C22420.2,16348.7 22423.1,16349.6 22425.4,16351.4C22427.6,16353.1 22428.8,16355.4 22428.8,16358.1C22428.8,16360.7 22427.6,16362.9 22425.4,16364.8C22423.1,16366.6 22420.2,16367.5 22416.7,16367.5ZM22561.5,16436.9C22562.3,16441.6 22564,16445.9 22566.6,16449.7C22570.3,16454.9 22575.4,16459 22582.1,16461.9C22588.7,16464.8 22596.4,16466.2 22605.2,16466.2C22612.2,16466.2 22618.7,16465.2 22624.6,16463.2C22630.5,16461.3 22635.5,16458.3 22639.6,16454.4L22650.8,16463.2C22645.4,16468.2 22638.7,16472.1 22630.7,16474.8C22622.7,16477.5 22614.1,16478.8 22604.9,16478.8C22593.3,16478.8 22582.9,16476.8 22573.7,16472.7C22564.5,16468.6 22557.2,16463 22551.9,16455.9C22546.5,16448.8 22543.9,16440.8 22543.9,16431.9C22543.9,16423 22546.5,16415 22551.7,16408C22556.9,16400.9 22564,16395.3 22573.1,16391.2C22582.1,16387.1 22592.2,16385.1 22603.4,16385.1C22614,16385.1 22623.4,16386.9 22631.5,16390.7C22639.6,16394.4 22646,16399.5 22650.7,16406.1C22655.3,16412.7 22657.6,16420.2 22657.6,16428.7C22657.6,16429.7 22657.5,16430.9 22657.4,16432.2C22657.2,16433.6 22656.9,16435.1 22656.5,16436.9L22561.5,16436.9ZM22561.6,16425.5L22640.7,16425.5C22640.3,16420.7 22638.9,16416.4 22636.5,16412.6C22633.5,16407.8 22629.2,16404.1 22623.5,16401.5C22617.8,16398.8 22611,16397.5 22603,16397.5C22594.6,16397.5 22587.3,16398.9 22581,16401.8C22574.7,16404.6 22569.8,16408.5 22566.4,16413.6C22563.9,16417.1 22562.3,16421.1 22561.6,16425.5ZM22810.6,16478.8C22804.2,16478.8 22798.2,16478.2 22792.5,16476.8C22786.8,16475.5 22781.6,16473.6 22776.9,16471.2C22772.2,16468.8 22768.1,16465.9 22764.6,16462.6L22775.8,16453.8C22780.3,16458.1 22785.5,16461.3 22791.4,16463.4C22797.3,16465.5 22803.8,16466.6 22810.9,16466.6C22818.7,16466.6 22824.7,16465.5 22829.1,16463.2C22833.4,16460.9 22835.6,16457.8 22835.6,16453.7C22835.6,16449.8 22834,16446.8 22831,16444.7C22827.9,16442.5 22823.9,16440.8 22819,16439.5C22814.1,16438.2 22809,16436.9 22803.5,16435.7C22798.1,16434.5 22793,16432.9 22788.1,16431.1C22783.2,16429.2 22779.2,16426.7 22776.1,16423.4C22773,16420.1 22771.5,16415.7 22771.5,16410.3C22771.5,16405.2 22773.1,16400.8 22776.4,16397C22779.6,16393.2 22784.2,16390.3 22790.2,16388.2C22796.1,16386.1 22803.2,16385.1 22811.4,16385.1C22820.2,16385.1 22828.1,16386.3 22835.2,16388.7C22842.2,16391.1 22847.9,16394.7 22852.2,16399.4L22841,16408.1C22837.6,16404.7 22833.4,16402 22828.2,16400.1C22823,16398.2 22817.2,16397.3 22810.7,16397.3C22803.4,16397.3 22797.8,16398.4 22793.9,16400.7C22790.1,16402.9 22788.1,16405.8 22788.1,16409.4C22788.1,16412.9 22789.7,16415.6 22792.8,16417.6C22795.8,16419.6 22799.8,16421.2 22804.7,16422.4C22809.6,16423.6 22814.8,16424.8 22820.2,16426C22825.6,16427.2 22830.8,16428.8 22835.6,16430.8C22840.5,16432.8 22844.5,16435.5 22847.6,16438.8C22850.7,16442.2 22852.2,16446.8 22852.2,16452.4C22852.2,16460.5 22848.5,16467 22840.9,16471.7C22833.4,16476.5 22823.3,16478.8 22810.6,16478.8Z" style="fill:rgb(17,15,38);"/>
                </g>
                <g transform="matrix(1.35787,0,0,2.8897,-7108.67,-12662.3)">
                    <path d="M6981.4,4699.88C6981.93,4699.33 6981.93,4698.47 6981.4,4697.92L6941.13,4655.85C6933.51,4647.89 6933.8,4635.24 6941.77,4627.63C6949.73,4620.02 6962.38,4620.3 6970,4628.26L7011.24,4671.35C7011.51,4671.62 7011.87,4671.78 7012.26,4671.78C7012.65,4671.79 7013.02,4671.63 7013.28,4671.35L7055.39,4628.13C7063.07,4620.24 7075.73,4620.07 7083.63,4627.75C7091.53,4635.43 7091.7,4648.08 7084.01,4655.98L7043.12,4697.95C7042.59,4698.5 7042.59,4699.37 7043.12,4699.92L7084.01,4741.86C7091.7,4749.76 7091.53,4762.4 7083.63,4770.09C7075.73,4777.77 7063.07,4777.6 7055.39,4769.7L7013.28,4726.48C7013.02,4726.21 7012.65,4726.05 7012.26,4726.05C7011.87,4726.05 7011.51,4726.21 7011.24,4726.49L6970,4769.58C6962.38,4777.54 6949.73,4777.82 6941.77,4770.21C6933.8,4762.6 6933.51,4749.95 6941.13,4741.99L6981.4,4699.88ZM5661.45,4775.74C5646.26,4775.74 5632.47,4772.09 5620.1,4764.8C5607.73,4757.5 5597.91,4747.65 5590.64,4735.23C5583.37,4722.82 5579.73,4708.99 5579.73,4693.75C5579.73,4678.5 5583.37,4664.78 5590.64,4652.59C5597.91,4640.39 5607.73,4630.65 5620.1,4623.35C5632.47,4616.06 5646.26,4612.41 5661.45,4612.41C5676.86,4612.41 5690.75,4616 5703.12,4623.19C5715.49,4630.38 5725.31,4640.12 5732.58,4652.43C5739.86,4664.73 5743.49,4678.5 5743.49,4693.75C5743.49,4708.99 5739.86,4722.82 5732.58,4735.23C5725.31,4747.65 5715.49,4757.5 5703.12,4764.8C5690.75,4772.09 5676.86,4775.74 5661.45,4775.74ZM5661.45,4741.11C5670.35,4741.11 5678.22,4739.1 5685.05,4735.07C5691.89,4731.04 5697.21,4725.43 5701,4718.25C5704.8,4711.06 5706.7,4702.89 5706.7,4693.75C5706.7,4684.6 5704.75,4676.54 5700.84,4669.57C5696.94,4662.61 5691.62,4657.11 5684.89,4653.08C5678.16,4649.05 5670.35,4647.04 5661.45,4647.04C5652.77,4647.04 5645.01,4649.05 5638.17,4653.08C5631.33,4657.11 5626.02,4662.61 5622.22,4669.57C5618.42,4676.54 5616.52,4684.6 5616.52,4693.75C5616.52,4702.89 5618.42,4711.06 5622.22,4718.25C5626.02,4725.43 5631.33,4731.04 5638.17,4735.07C5645.01,4739.1 5652.77,4741.11 5661.45,4741.11ZM5842.46,4775.74C5829.3,4775.74 5817.55,4772.8 5807.2,4766.92C5796.85,4761.04 5788.79,4752.94 5783.04,4742.63C5777.29,4732.32 5774.41,4720.37 5774.41,4706.77L5774.41,4615.68L5810.23,4615.68L5810.23,4705.18C5810.23,4712.8 5811.47,4719.28 5813.97,4724.62C5816.47,4729.95 5820.16,4734.03 5825.04,4736.87C5829.92,4739.7 5835.76,4741.11 5842.56,4741.11C5852.91,4741.11 5860.85,4738.01 5866.39,4731.8C5871.92,4725.6 5874.69,4716.72 5874.69,4705.18L5874.69,4615.68L5910.5,4615.68L5910.5,4706.81C5910.5,4720.53 5907.62,4732.57 5901.87,4742.91C5896.12,4753.25 5888.13,4761.31 5877.9,4767.08C5867.67,4772.85 5855.86,4775.74 5842.46,4775.74ZM5977.23,4755.33L5977.23,4772.47L5941.42,4772.47L5941.42,4537.28L5977.23,4537.28L5977.23,4633.11C5981.77,4627.9 5987.19,4623.55 5993.51,4620.09C6002.85,4614.97 6013.37,4612.41 6025.09,4612.41C6039.2,4612.41 6051.95,4616.06 6063.35,4623.35C6074.74,4630.65 6083.75,4640.45 6090.37,4652.75C6096.99,4665.06 6100.3,4678.94 6100.3,4694.4C6100.3,4709.65 6096.99,4723.42 6090.37,4735.72C6083.75,4748.03 6074.74,4757.77 6063.35,4764.96C6051.95,4772.15 6039.2,4775.74 6025.09,4775.74C6013.16,4775.74 6002.52,4773.18 5993.19,4768.06C5986.98,4764.66 5981.67,4760.41 5977.23,4755.33ZM6019.23,4741.77C6027.91,4741.77 6035.57,4739.75 6042.19,4735.72C6048.81,4731.69 6054.01,4726.09 6057.81,4718.9C6061.61,4711.71 6063.51,4703.44 6063.51,4694.07C6063.51,4684.71 6061.61,4676.44 6057.81,4669.25C6054.01,4662.06 6048.81,4656.45 6042.19,4652.43C6035.57,4648.4 6027.91,4646.38 6019.23,4646.38C6010.55,4646.38 6002.85,4648.4 5996.12,4652.43C5989.39,4656.45 5984.18,4662.06 5980.49,4669.25C5976.8,4676.44 5974.96,4684.71 5974.96,4694.07C5974.96,4703.44 5976.8,4711.71 5980.49,4718.9C5984.18,4726.09 5989.39,4731.69 5996.12,4735.72C6002.85,4739.75 6010.55,4741.77 6019.23,4741.77ZM6131.22,4775.74L6131.22,4540.55L6167.03,4540.55L6167.03,4775.74L6131.22,4775.74ZM6231.87,4707.47C6232.84,4711.55 6234.26,4715.36 6236.13,4718.9C6240.04,4726.3 6245.57,4732.02 6252.74,4736.05C6259.9,4740.08 6268.15,4742.09 6277.48,4742.09C6285.51,4742.09 6292.94,4740.68 6299.78,4737.85C6306.61,4735.02 6312.42,4730.88 6317.2,4725.43L6339.99,4748.63C6332.39,4757.55 6323.16,4764.31 6312.31,4768.88C6301.46,4773.45 6289.96,4775.74 6277.8,4775.74C6262.18,4775.74 6248.12,4772.2 6235.64,4765.12C6223.16,4758.04 6213.29,4748.3 6206.02,4735.89C6198.75,4723.47 6195.11,4709.54 6195.11,4694.07C6195.11,4678.61 6198.69,4664.73 6205.85,4652.43C6213.02,4640.12 6222.73,4630.38 6234.99,4623.19C6247.25,4616 6260.87,4612.41 6275.85,4612.41C6290.39,4612.41 6303.25,4615.79 6314.43,4622.54C6325.61,4629.29 6334.4,4638.54 6340.8,4650.3C6347.2,4662.06 6350.4,4675.45 6350.4,4690.48C6350.4,4693.1 6350.24,4695.76 6349.91,4698.48C6349.59,4701.21 6349.1,4704.2 6348.45,4707.47L6231.87,4707.47ZM6231.97,4678.07L6315.15,4678.07C6314.22,4673.45 6312.83,4669.32 6311.01,4665.66C6307.76,4659.12 6303.14,4654.11 6297.17,4650.63C6291.2,4647.15 6283.88,4645.4 6275.2,4645.4C6266.08,4645.4 6258.16,4647.36 6251.43,4651.28C6244.7,4655.2 6239.49,4660.7 6235.81,4667.78C6234.16,4670.94 6232.88,4674.37 6231.97,4678.07ZM6481.72,4685.52L6481.72,4775.74L6446.02,4775.74L6446.02,4541.24L6481.72,4541.24L6481.72,4637C6486.01,4631.88 6491.14,4627.59 6497.11,4624.13C6506.28,4618.81 6516.67,4616.15 6528.27,4616.15C6539.87,4616.15 6550.21,4618.76 6559.3,4623.97C6568.39,4629.18 6575.53,4636.4 6580.73,4645.63C6585.92,4654.85 6588.52,4665.55 6588.52,4677.71L6588.52,4775.74L6552.81,4775.74L6552.81,4685.52C6552.81,4675.1 6549.51,4666.52 6542.91,4659.79C6536.31,4653.06 6527.84,4649.7 6517.51,4649.7C6510.48,4649.7 6504.27,4651.22 6498.89,4654.26C6493.5,4657.3 6489.3,4661.53 6486.27,4666.96C6483.24,4672.39 6481.72,4678.57 6481.72,4685.52ZM6653.75,4707.67C6654.73,4711.74 6656.14,4715.54 6658,4719.07C6661.9,4726.45 6667.42,4732.15 6674.56,4736.17C6681.7,4740.18 6689.92,4742.19 6699.23,4742.19C6707.23,4742.19 6714.65,4740.78 6721.46,4737.96C6728.28,4735.14 6734.07,4731.01 6738.83,4725.58L6761.55,4748.71C6753.98,4757.61 6744.78,4764.34 6733.96,4768.9C6723.14,4773.46 6711.67,4775.74 6699.55,4775.74C6683.97,4775.74 6669.96,4772.21 6657.52,4765.15C6645.07,4758.1 6635.23,4748.38 6627.98,4736C6620.73,4723.63 6617.1,4709.73 6617.1,4694.32C6617.1,4678.9 6620.67,4665.06 6627.82,4652.79C6634.96,4640.52 6644.64,4630.81 6656.87,4623.64C6669.09,4616.48 6682.67,4612.89 6697.6,4612.89C6712.1,4612.89 6724.92,4616.26 6736.07,4622.99C6747.21,4629.72 6755.98,4638.95 6762.36,4650.67C6768.74,4662.4 6771.94,4675.75 6771.94,4690.73C6771.94,4693.34 6771.77,4696 6771.45,4698.71C6771.12,4701.43 6770.64,4704.41 6769.99,4707.67L6653.75,4707.67ZM6653.85,4678.36L6736.79,4678.36C6735.86,4673.76 6734.48,4669.63 6732.66,4665.98C6729.41,4659.47 6724.82,4654.47 6718.86,4651C6712.91,4647.53 6705.61,4645.79 6696.95,4645.79C6687.86,4645.79 6679.97,4647.74 6673.26,4651.65C6666.55,4655.56 6661.36,4661.04 6657.68,4668.1C6656.04,4671.25 6654.76,4674.67 6653.85,4678.36ZM6800.52,4775.74L6800.52,4541.24L6836.23,4541.24L6836.23,4775.74L6800.52,4775.74ZM6868.06,4775.74L6868.06,4619.41L6903.77,4619.41L6903.77,4775.74L6868.06,4775.74ZM6885.91,4590.75C6879.85,4590.75 6874.82,4588.69 6870.82,4584.56C6866.82,4580.43 6864.82,4575.33 6864.82,4569.25C6864.82,4563.17 6866.82,4558.07 6870.82,4553.94C6874.82,4549.82 6879.85,4547.76 6885.91,4547.76C6892.19,4547.76 6897.27,4549.82 6901.17,4553.94C6905.07,4558.07 6907.01,4563.17 6907.01,4569.25C6907.01,4575.33 6905.07,4580.43 6901.17,4584.56C6897.27,4588.69 6892.19,4590.75 6885.91,4590.75ZM5513.71,4755.33C5509.28,4760.41 5503.96,4764.66 5497.76,4768.06C5488.42,4773.18 5477.79,4775.74 5465.85,4775.74C5451.74,4775.74 5439,4772.15 5427.61,4764.97C5416.23,4757.78 5407.23,4748.04 5400.59,4735.73C5393.96,4723.42 5390.65,4709.62 5390.65,4694.33C5390.65,4678.82 5393.96,4664.93 5400.57,4652.68C5407.19,4640.42 5416.18,4630.65 5427.53,4623.35C5438.89,4616.06 5451.66,4612.41 5465.85,4612.41C5477.79,4612.41 5488.37,4614.97 5497.59,4620.09C5503.83,4623.55 5509.21,4627.89 5513.71,4633.09L5513.71,4537.28L5549.52,4537.28L5549.52,4772.47L5513.71,4772.47L5513.71,4755.33ZM5471.71,4741.77C5480.61,4741.77 5488.36,4739.73 5494.95,4735.67C5501.55,4731.61 5506.7,4726 5510.41,4718.85C5514.13,4711.7 5515.99,4703.44 5515.99,4694.07C5515.99,4684.62 5514.12,4676.34 5510.38,4669.22C5506.65,4662.09 5501.49,4656.51 5494.92,4652.46C5488.35,4648.41 5480.66,4646.38 5471.87,4646.38C5463.08,4646.38 5455.39,4648.42 5448.78,4652.48C5442.18,4656.55 5436.97,4662.16 5433.16,4669.32C5429.34,4676.48 5427.43,4684.73 5427.43,4694.07C5427.43,4703.44 5429.32,4711.71 5433.11,4718.89C5436.89,4726.07 5442.12,4731.67 5448.81,4735.71C5455.5,4739.75 5463.13,4741.77 5471.71,4741.77Z" style="fill:rgb(17,15,38);"/>
                </g>
            </g>
            <g transform="matrix(2.12437,0,0,3.59272,-1024.25,-778.124)">
                <path d="M812.765,577.563L828.811,594.049C832.095,597.424 832.022,602.83 828.648,606.114C825.274,609.398 819.868,609.325 816.585,605.951L800.054,588.966L783.863,605.897C780.609,609.299 775.205,609.42 771.802,606.166C768.399,602.912 768.278,597.506 771.533,594.103L787.337,577.577C780.59,572.124 770.782,563.695 763.762,555.529C757.338,548.057 753.478,540.371 753.469,534.746C753.461,529.12 757.298,521.424 763.7,513.933C775.391,500.253 794.866,485.819 794.866,485.819L794.866,485.818C797.873,483.596 801.975,483.59 804.987,485.803L804.988,485.804C804.988,485.804 824.506,500.183 836.238,513.829C842.662,521.302 846.522,528.987 846.531,534.612C846.539,540.238 842.702,547.934 836.3,555.426C829.295,563.623 819.496,572.091 812.765,577.563ZM800.048,565.919C806.093,561.119 816.28,552.589 823.33,544.34C825.321,542.01 827.05,539.723 828.258,537.565C828.873,536.467 829.47,535.529 829.469,534.638C829.468,533.747 828.867,532.811 828.249,531.714C827.034,529.559 825.298,527.277 823.3,524.953C816.225,516.723 806.012,508.222 799.952,503.44C793.907,508.239 783.72,516.769 776.67,525.018C774.679,527.348 772.95,529.635 771.742,531.793C771.127,532.892 770.53,533.829 770.531,534.72C770.532,535.611 771.133,536.547 771.751,537.644C772.966,539.799 774.702,542.081 776.7,544.405C783.775,552.635 793.988,561.137 800.048,565.919ZM693.075,471.697C693.075,471.697 707.145,452.192 720.488,440.476C727.856,434.007 735.46,430.148 741,430.148C746.54,430.148 754.144,434.007 761.512,440.476C774.855,452.192 788.925,471.697 788.925,471.697L788.925,471.697C791.066,474.673 791.066,478.685 788.925,481.661L788.925,481.662C788.925,481.662 774.855,501.166 761.512,512.882C754.144,519.352 746.54,523.211 741,523.211C735.46,523.211 727.856,519.352 720.488,512.882C707.145,501.166 693.075,481.662 693.075,481.662L693.075,481.661C690.934,478.685 690.934,474.673 693.075,471.697L693.075,471.697ZM710.664,476.679C715.327,482.719 723.672,492.971 731.746,500.06C734.006,502.045 736.224,503.77 738.32,504.975C739.331,505.557 740.179,506.148 741,506.148C741.821,506.148 742.669,505.557 743.68,504.975C745.776,503.77 747.994,502.045 750.254,500.06C758.328,492.971 766.673,482.719 771.336,476.679C766.673,470.639 758.328,460.387 750.254,453.298C747.994,451.313 745.776,449.588 743.68,448.383C742.669,447.801 741.821,447.211 741,447.211C740.179,447.211 739.331,447.801 738.32,448.383C736.224,449.588 734.006,451.313 731.746,453.298C723.672,460.387 715.327,470.639 710.664,476.679ZM794.939,467.547C794.939,467.547 775.442,453.141 763.731,439.477C757.318,431.995 753.469,424.305 753.469,418.679C753.469,413.054 757.318,405.363 763.731,397.881C775.442,384.218 794.939,369.811 794.939,369.811L794.94,369.811C797.949,367.593 802.051,367.593 805.06,369.811L805.061,369.811C805.061,369.811 824.558,384.218 836.269,397.881C842.682,405.363 846.531,413.054 846.531,418.679C846.531,424.305 842.682,431.995 836.269,439.477C824.558,453.141 805.061,467.547 805.061,467.547L805.06,467.548C802.051,469.765 797.949,469.765 794.94,467.548L794.939,467.547ZM800,449.919C806.052,445.128 816.253,436.612 823.315,428.373C825.31,426.046 827.042,423.761 828.253,421.605C828.87,420.507 829.469,419.57 829.469,418.679C829.469,417.788 828.87,416.851 828.253,415.753C827.042,413.597 825.31,411.313 823.315,408.985C816.253,400.746 806.052,392.23 800,387.44C793.948,392.23 783.747,400.746 776.685,408.985C774.69,411.313 772.958,413.597 771.747,415.753C771.13,416.851 770.531,417.788 770.531,418.679C770.531,419.57 771.13,420.507 771.747,421.605C772.958,423.761 774.69,426.046 776.685,428.373C783.747,436.612 793.948,445.128 800,449.919ZM906.925,481.662C906.925,481.662 892.855,501.166 879.512,512.882C872.144,519.352 864.54,523.211 859,523.211C853.46,523.211 845.856,519.352 838.488,512.882C825.145,501.166 811.075,481.662 811.075,481.662L811.075,481.661C808.934,478.685 808.934,474.673 811.075,471.697L811.075,471.697C811.075,471.697 825.145,452.192 838.488,440.476C845.856,434.007 853.46,430.148 859,430.148C864.54,430.148 872.144,434.007 879.512,440.476C892.855,452.192 906.925,471.697 906.925,471.697L906.925,471.697C909.066,474.673 909.066,478.685 906.925,481.661L906.925,481.662ZM889.336,476.679C884.673,470.639 876.328,460.387 868.254,453.298C865.994,451.313 863.776,449.588 861.68,448.383C860.669,447.801 859.821,447.211 859,447.211C858.179,447.211 857.331,447.801 856.32,448.383C854.224,449.588 852.006,451.313 849.746,453.298C841.672,460.387 833.327,470.639 828.664,476.679C833.327,482.719 841.672,492.971 849.746,500.06C852.006,502.045 854.224,503.77 856.32,504.975C857.331,505.557 858.179,506.148 859,506.148C859.821,506.148 860.669,505.557 861.68,504.975C863.776,503.77 865.994,502.045 868.254,500.06C876.328,492.971 884.673,482.719 889.336,476.679Z" style="fill:rgb(17,15,38);"/>
            </g>
        </g>
    </g>
</svg>
